
<!--
Licensed to the Apache Software Foundation (ASF) under one
or more contributor license agreements.  See the NOTICE file
distributed with this work for additional information
regarding copyright ownership.  The ASF licenses this file
to you under the Apache License, Version 2.0 (the
"License"); you may not use this file except in compliance
with the License.  You may obtain a copy of the License at

    http://www.apache.org/licenses/LICENSE-2.0

Unless required by applicable law or agreed to in writing, software
distributed under the License is distributed on an "AS IS" BASIS,
WITHOUT WARRANTIES OR CONDITIONS OF ANY KIND, either express or implied.
See the License for the specific language governing permissions and
limitations under the License.
/-->

<?xml version="1.0" encoding="UTF-8"?>
<svg version="1.1" xmlns="http://www.w3.org/2000/svg" width="500" height="342">
<path d="M0 0 C3.5625 0.25 3.5625 0.25 6.5625 2.25 C7.6940918 4.15087891 7.6940918 4.15087891 8.76171875 6.4765625 C9.36234131 7.76494019 9.36234131 7.76494019 9.97509766 9.0793457 C10.39581543 10.00191162 10.8165332 10.92447754 11.25 11.875 C12.14588929 13.79875789 13.04303695 15.72193024 13.94140625 17.64453125 C14.6068042 19.07466553 14.6068042 19.07466553 15.28564453 20.53369141 C17.02786051 24.23998108 18.84351208 27.90600574 20.6875 31.5625 C21.1659436 32.51310303 21.1659436 32.51310303 21.65405273 33.48291016 C22.29448962 34.75404345 22.93551859 36.02487862 23.57714844 37.29541016 C25.33159067 40.77560453 27.07099355 44.26331991 28.8125 47.75 C29.44264433 49.01044867 30.07285043 50.27086646 30.703125 51.53125 C31.00283203 52.13324219 31.30253906 52.73523438 31.61132812 53.35546875 C32.29458148 54.71636351 32.98710205 56.07262031 33.68554688 57.42578125 C34.05228516 58.14121094 34.41902344 58.85664062 34.796875 59.59375 C35.13428711 60.24537109 35.47169922 60.89699219 35.81933594 61.56835938 C36.5625 63.25 36.5625 63.25 36.5625 65.25 C37.2225 65.25 37.8825 65.25 38.5625 65.25 C38.76875 64.363125 38.975 63.47625 39.1875 62.5625 C40.88808208 56.51042847 43.8593376 50.9028396 46.5625 45.25 C47.2225 45.25 47.8825 45.25 48.5625 45.25 C48.74425781 44.66992188 48.92601562 44.08984375 49.11328125 43.4921875 C50.6043106 38.85852707 52.24583576 34.55237645 54.5625 30.25 C55.5525 30.25 56.5425 30.25 57.5625 30.25 C60.55880355 36.19202641 63.54891142 42.13713965 66.53466797 48.08447266 C67.55178636 50.10863252 68.5703375 52.13207309 69.59033203 54.15478516 C71.05355262 57.05705262 72.5116538 59.96184145 73.96875 62.8671875 C74.42809937 63.77556366 74.88744873 64.68393982 75.36071777 65.61984253 C75.99137146 66.88092331 75.99137146 66.88092331 76.63476562 68.16748047 C77.00782837 68.90916473 77.38089111 69.650849 77.76525879 70.41500854 C78.5625 72.25 78.5625 72.25 78.5625 74.25 C79.2225 74.58 79.8825 74.91 80.5625 75.25 C81.52392578 76.89233398 81.52392578 76.89233398 82.5078125 78.99609375 C82.86230469 79.75083984 83.21679688 80.50558594 83.58203125 81.28320312 C83.94683594 82.07662109 84.31164062 82.87003906 84.6875 83.6875 C85.06003906 84.47705078 85.43257812 85.26660156 85.81640625 86.08007812 C88.5625 91.97965316 88.5625 91.97965316 88.5625 94.25 C89.2225 94.58 89.8825 94.91 90.5625 95.25 C91.47290039 96.82202148 91.47290039 96.82202148 92.41015625 98.87109375 C92.76408447 99.63365479 93.1180127 100.39621582 93.48266602 101.18188477 C93.85963623 102.00873779 94.23660645 102.83559082 94.625 103.6875 C98.20611358 111.41788816 101.92620654 119.05788455 105.81860352 126.63647461 C108.5625 132.0377345 108.5625 132.0377345 108.5625 134.25 C109.2225 134.58 109.8825 134.91 110.5625 135.25 C111.62978738 137.29967691 112.6138073 139.39280757 113.5625 141.5 C114.18265741 142.85980242 114.80381103 144.2191508 115.42578125 145.578125 C115.76432129 146.32126953 116.10286133 147.06441406 116.45166016 147.83007812 C118.51328363 152.32124557 120.63149828 156.78545379 122.75 161.25 C123.16572266 162.13333008 123.58144531 163.01666016 124.00976562 163.92675781 C125.83986242 167.78460185 127.69946133 171.56722605 129.86328125 175.25 C131.5625 178.25 131.5625 178.25 131.5625 180.25 C132.2225 180.58 132.8825 180.91 133.5625 181.25 C134.65091816 183.32001545 135.66044527 185.43194791 136.625 187.5625 C137.41583984 189.28919922 137.41583984 189.28919922 138.22265625 191.05078125 C139.5625 194.25 139.5625 194.25 140.12109375 196.60546875 C140.26675781 197.14816406 140.41242188 197.69085938 140.5625 198.25 C141.2225 198.58 141.8825 198.91 142.5625 199.25 C143.80603495 201.81919012 144.95687018 204.37239441 146.0625 207 C146.37058594 207.71671875 146.67867188 208.4334375 146.99609375 209.171875 C148.27818622 212.16525828 149.52498571 215.14871143 150.65625 218.203125 C151.37967666 220.42392198 151.37967666 220.42392198 153.5625 221.25 C154.73954743 223.54776261 155.82599576 225.83214568 156.875 228.1875 C157.49616876 229.55524545 158.11856988 230.92243186 158.7421875 232.2890625 C159.04866211 232.96227539 159.35513672 233.63548828 159.67089844 234.32910156 C161.2518478 237.73515567 162.98027575 241.06482998 164.71484375 244.39453125 C165.5625 246.25 165.5625 246.25 165.5625 248.25 C166.2225 248.58 166.8825 248.91 167.5625 249.25 C168.52392578 250.89233398 168.52392578 250.89233398 169.5078125 252.99609375 C169.86230469 253.75083984 170.21679688 254.50558594 170.58203125 255.28320312 C170.94683594 256.07662109 171.31164062 256.87003906 171.6875 257.6875 C172.06003906 258.47705078 172.43257813 259.26660156 172.81640625 260.08007812 C175.5625 265.97965316 175.5625 265.97965316 175.5625 268.25 C176.2225 268.58 176.8825 268.91 177.5625 269.25 C178.61572266 271.07592773 178.61572266 271.07592773 179.7265625 273.43359375 C180.12617188 274.27857422 180.52578125 275.12355469 180.9375 275.99414062 C181.35 276.88294922 181.7625 277.77175781 182.1875 278.6875 C182.60773438 279.57244141 183.02796875 280.45738281 183.4609375 281.36914062 C186.5625 287.98010095 186.5625 287.98010095 186.5625 290.25 C155.44483818 290.37770158 124.32717527 290.50513064 93.20951079 290.63218227 C89.53103128 290.64720153 85.85255177 290.6622231 82.17407227 290.67724609 C81.44179107 290.68023671 80.70950987 290.68322732 79.95503833 290.68630856 C68.11714361 290.73465968 56.27924965 290.78319766 44.44135598 290.83180541 C32.28349059 290.88172281 20.12562438 290.93143777 7.9677574 290.98096704 C0.47314943 291.01150523 -7.02145788 291.04219901 -14.51606438 291.07309544 C-20.27482371 291.09681889 -26.03358415 291.12025992 -31.79234505 291.14359856 C-34.14605624 291.15318097 -36.49976706 291.16285328 -38.85347748 291.17262459 C-44.00767861 291.19399997 -49.16187048 291.21420781 -54.31609154 291.2301178 C-57.45695266 291.24020834 -60.59741068 291.25886808 -63.73812294 291.29075623 C-64.91886076 291.29982498 -66.09959858 291.30889374 -67.31611633 291.3182373 C-68.76552848 291.33439716 -68.76552848 291.33439716 -70.24422169 291.35088348 C-72.4375 291.25 -72.4375 291.25 -74.4375 290.25 C-73.73808404 287.10262818 -72.67671302 284.22411124 -71.4375 281.25 C-70.7775 281.25 -70.1175 281.25 -69.4375 281.25 C-69.25574219 280.66992188 -69.07398438 280.08984375 -68.88671875 279.4921875 C-68.63535156 278.71101563 -68.38398438 277.92984375 -68.125 277.125 C-67.88136719 276.35929687 -67.63773437 275.59359375 -67.38671875 274.8046875 C-66.28173487 271.83078027 -64.89439039 269.06583857 -63.4375 266.25 C-74.16146024 266.15002045 -84.85320188 266.12660533 -95.5625 266.75 C-102.50370781 267.14816919 -109.42187608 267.35974356 -116.375 267.375 C-117.2098291 267.37951172 -118.0446582 267.38402344 -118.90478516 267.38867188 C-127.04968696 267.36855687 -127.04968696 267.36855687 -130.4375 266.25 C-132.93046992 262.51054512 -133.06837434 259.58044611 -132.4375 255.25 C-131.39991489 252.40084737 -129.96434122 249.8636875 -128.4375 247.25 C-127.6101726 245.76532818 -126.78469629 244.27962355 -125.9609375 242.79296875 C-125.33010254 241.66834229 -125.33010254 241.66834229 -124.68652344 240.52099609 C-122.70628225 236.92048719 -120.88188229 233.24623031 -119.0625 229.5625 C-118.74152344 228.91603516 -118.42054687 228.26957031 -118.08984375 227.60351562 C-117.20444683 225.81964631 -116.32092834 224.03484504 -115.4375 222.25 C-114.43854343 220.24947862 -113.43853991 218.24947971 -112.4375 216.25 C-111.85613281 215.08726562 -111.27476563 213.92453125 -110.67578125 212.7265625 C-110.36552002 212.10612061 -110.05525879 211.48567871 -109.7355957 210.84643555 C-109.0580912 209.49125872 -108.38086022 208.13594512 -107.70385742 206.78051758 C-105.91283108 203.19562779 -104.11768785 199.61293829 -102.3125 196.03515625 C-98.52143913 188.50997605 -94.83656298 180.96325831 -91.4375 173.25 C-90.7775 173.25 -90.1175 173.25 -89.4375 173.25 C-89.34597656 172.57582031 -89.25445312 171.90164062 -89.16015625 171.20703125 C-88.25296992 167.49492286 -86.6238495 164.30675242 -84.875 160.9375 C-84.14437121 159.50398781 -83.41390701 158.07039171 -82.68359375 156.63671875 C-82.30960449 155.90759277 -81.93561523 155.1784668 -81.55029297 154.42724609 C-79.82243394 151.04658641 -78.13068289 147.64812109 -76.4375 144.25 C-74.44450421 140.25815957 -72.44813819 136.26814412 -70.4375 132.28515625 C-66.66006643 124.78931151 -63.00232232 117.25060055 -59.45507812 109.64306641 C-55.92820676 102.10568835 -52.19476092 94.6745874 -48.4375 87.25 C-47.7775 87.25 -47.1175 87.25 -46.4375 87.25 C-46.34726563 86.404375 -46.25703125 85.55875 -46.1640625 84.6875 C-45.33764656 80.77757512 -43.75936638 77.6873793 -41.8125 74.25 C-41.07920021 72.91620404 -40.34746161 71.58154872 -39.6171875 70.24609375 C-39.24948242 69.57690918 -38.88177734 68.90772461 -38.50292969 68.21826172 C-35.98928982 63.57459431 -33.68883744 58.81975802 -31.34814453 54.08740234 C-29.69994998 50.76184948 -28.03628368 47.44402769 -26.375 44.125 C-25.69655009 42.76826141 -25.01816344 41.4114912 -24.33984375 40.0546875 C-10.26953125 11.9140625 -10.26953125 11.9140625 -9.33056641 10.04394531 C-8.4803393 8.33605337 -7.65168058 6.61747442 -6.82421875 4.8984375 C-4.85351013 1.13466159 -4.34223793 0.31579912 0 0 Z " fill="#004E7F" transform="translate(204.4375,39.75)"/>
<path d="M0 0 C3.71599191 -0.20086443 4.77208445 -0.1519437 8 2 C9.1315918 3.90087891 9.1315918 3.90087891 10.19921875 6.2265625 C10.79984131 7.51494019 10.79984131 7.51494019 11.41259766 8.8293457 C11.83331543 9.75191162 12.2540332 10.67447754 12.6875 11.625 C13.58338929 13.54875789 14.48053695 15.47193024 15.37890625 17.39453125 C16.0443042 18.82466553 16.0443042 18.82466553 16.72314453 20.28369141 C18.46536051 23.98998108 20.28101208 27.65600574 22.125 31.3125 C22.6034436 32.26310303 22.6034436 32.26310303 23.09155273 33.23291016 C23.73198962 34.50404345 24.37301859 35.77487862 25.01464844 37.04541016 C26.76909067 40.52560453 28.50849355 44.01331991 30.25 47.5 C30.88014433 48.76044867 31.51035043 50.02086646 32.140625 51.28125 C32.44033203 51.88324219 32.74003906 52.48523438 33.04882812 53.10546875 C33.73208148 54.46636351 34.42460205 55.82262031 35.12304688 57.17578125 C35.48978516 57.89121094 35.85652344 58.60664062 36.234375 59.34375 C36.57178711 59.99537109 36.90919922 60.64699219 37.25683594 61.31835938 C38 63 38 63 38 65 C38.66 65 39.32 65 40 65 C40.20625 64.113125 40.4125 63.22625 40.625 62.3125 C42.32558208 56.26042847 45.2968376 50.6528396 48 45 C48.66 45 49.32 45 50 45 C50.18175781 44.41992188 50.36351562 43.83984375 50.55078125 43.2421875 C52.0418106 38.60852707 53.68333576 34.30237645 56 30 C56.99 30 57.98 30 59 30 C61.99630355 35.94202641 64.98641142 41.88713965 67.97216797 47.83447266 C68.98928636 49.85863252 70.0078375 51.88207309 71.02783203 53.90478516 C72.49105262 56.80705262 73.9491538 59.71184145 75.40625 62.6171875 C75.86559937 63.52556366 76.32494873 64.43393982 76.79821777 65.36984253 C77.42887146 66.63092331 77.42887146 66.63092331 78.07226562 67.91748047 C78.44532837 68.65916473 78.81839111 69.400849 79.20275879 70.16500854 C80 72 80 72 80 74 C80.66 74.33 81.32 74.66 82 75 C82.96142578 76.64233398 82.96142578 76.64233398 83.9453125 78.74609375 C84.29980469 79.50083984 84.65429688 80.25558594 85.01953125 81.03320312 C85.38433594 81.82662109 85.74914062 82.62003906 86.125 83.4375 C86.49753906 84.22705078 86.87007812 85.01660156 87.25390625 85.83007812 C90 91.72965316 90 91.72965316 90 94 C90.66 94.33 91.32 94.66 92 95 C92.91040039 96.57202148 92.91040039 96.57202148 93.84765625 98.62109375 C94.20158447 99.38365479 94.5555127 100.14621582 94.92016602 100.93188477 C95.29713623 101.75873779 95.67410645 102.58559082 96.0625 103.4375 C99.64361358 111.16788816 103.36370654 118.80788455 107.25610352 126.38647461 C110 131.7877345 110 131.7877345 110 134 C110.66 134.33 111.32 134.66 112 135 C113.06728738 137.04967691 114.0513073 139.14280757 115 141.25 C115.62015741 142.60980242 116.24131103 143.9691508 116.86328125 145.328125 C117.20182129 146.07126953 117.54036133 146.81441406 117.88916016 147.58007812 C119.95078363 152.07124557 122.06899828 156.53545379 124.1875 161 C124.60322266 161.88333008 125.01894531 162.76666016 125.44726562 163.67675781 C127.27736242 167.53460185 129.13696133 171.31722605 131.30078125 175 C133 178 133 178 133 180 C133.66 180.33 134.32 180.66 135 181 C136.08841816 183.07001545 137.09794527 185.18194791 138.0625 187.3125 C138.85333984 189.03919922 138.85333984 189.03919922 139.66015625 190.80078125 C141 194 141 194 141.55859375 196.35546875 C141.70425781 196.89816406 141.84992188 197.44085938 142 198 C142.66 198.33 143.32 198.66 144 199 C145.24353495 201.56919012 146.39437018 204.12239441 147.5 206.75 C147.80808594 207.46671875 148.11617188 208.1834375 148.43359375 208.921875 C149.71568622 211.91525828 150.96248571 214.89871143 152.09375 217.953125 C152.81717666 220.17392198 152.81717666 220.17392198 155 221 C156.17704743 223.29776261 157.26349576 225.58214568 158.3125 227.9375 C158.93366876 229.30524545 159.55606988 230.67243186 160.1796875 232.0390625 C160.48616211 232.71227539 160.79263672 233.38548828 161.10839844 234.07910156 C162.6893478 237.48515567 164.41777575 240.81482998 166.15234375 244.14453125 C167 246 167 246 167 248 C167.66 248.33 168.32 248.66 169 249 C169.96142578 250.64233398 169.96142578 250.64233398 170.9453125 252.74609375 C171.29980469 253.50083984 171.65429688 254.25558594 172.01953125 255.03320312 C172.38433594 255.82662109 172.74914062 256.62003906 173.125 257.4375 C173.49753906 258.22705078 173.87007813 259.01660156 174.25390625 259.83007812 C177 265.72965316 177 265.72965316 177 268 C177.66 268.33 178.32 268.66 179 269 C180.05322266 270.82592773 180.05322266 270.82592773 181.1640625 273.18359375 C181.56367188 274.02857422 181.96328125 274.87355469 182.375 275.74414062 C182.7875 276.63294922 183.2 277.52175781 183.625 278.4375 C184.04523438 279.32244141 184.46546875 280.20738281 184.8984375 281.11914062 C188 287.73010095 188 287.73010095 188 290 C156.88233818 290.12770158 125.76467527 290.25513064 94.64701079 290.38218227 C90.96853128 290.39720153 87.29005177 290.4122231 83.61157227 290.42724609 C82.87929107 290.43023671 82.14700987 290.43322732 81.39253833 290.43630856 C69.55464361 290.48465968 57.71674965 290.53319766 45.87885598 290.58180541 C33.72099059 290.63172281 21.56312438 290.68143777 9.4052574 290.73096704 C1.91064943 290.76150523 -5.58395788 290.79219901 -13.07856438 290.82309544 C-18.83732371 290.84681889 -24.59608415 290.87025992 -30.35484505 290.89359856 C-32.70855624 290.90318097 -35.06226706 290.91285328 -37.41597748 290.92262459 C-42.57017861 290.94399997 -47.72437048 290.96420781 -52.87859154 290.9801178 C-56.01945266 290.99020834 -59.15991068 291.00886808 -62.30062294 291.04075623 C-63.48136076 291.04982498 -64.66209858 291.05889374 -65.87861633 291.0682373 C-67.32802848 291.08439716 -67.32802848 291.08439716 -68.80672169 291.10088348 C-71 291 -71 291 -73 290 C-72.30058404 286.85262818 -71.23921302 283.97411124 -70 281 C-69.34 281 -68.68 281 -68 281 C-67.81824219 280.41992188 -67.63648438 279.83984375 -67.44921875 279.2421875 C-67.19785156 278.46101563 -66.94648438 277.67984375 -66.6875 276.875 C-66.44386719 276.10929687 -66.20023437 275.34359375 -65.94921875 274.5546875 C-64.84423487 271.58078027 -63.45689039 268.81583857 -62 266 C-72.72396024 265.90002045 -83.41570188 265.87660533 -94.125 266.5 C-101.06620781 266.89816919 -107.98437608 267.10974356 -114.9375 267.125 C-115.7723291 267.12951172 -116.6071582 267.13402344 -117.46728516 267.13867188 C-125.61218696 267.11855687 -125.61218696 267.11855687 -129 266 C-131 263 -131 263 -131 259 C-127.75563952 258.27877222 -124.75510071 257.87530703 -121.43356609 257.87695217 C-120.54231177 257.87496112 -119.65105745 257.87297007 -118.73279542 257.87091869 C-117.76294971 257.87383153 -116.79310399 257.87674437 -115.79386902 257.87974548 C-114.75645815 257.87889106 -113.71904728 257.87803663 -112.65019971 257.87715632 C-109.16937021 257.87550744 -105.68858875 257.88101325 -102.20776367 257.88647461 C-99.71444703 257.88675663 -97.22113031 257.88659845 -94.72781372 257.8860321 C-89.35746326 257.88580429 -83.98712779 257.88864321 -78.61678123 257.89426994 C-70.85218079 257.90239994 -63.08758623 257.9050017 -55.32298199 257.90625793 C-42.725165 257.90844609 -30.12735449 257.91509979 -17.52954102 257.92456055 C-5.29256218 257.93374076 6.9444149 257.94081862 19.18139648 257.94506836 C19.93579275 257.94533108 20.69018901 257.94559381 21.46744577 257.94586449 C25.25206261 257.94716954 29.03667947 257.94843324 32.82129633 257.94967639 C64.21420227 257.96004165 95.60710015 257.97772794 127 258 C126.52691406 257.05382812 126.05382812 256.10765625 125.56640625 255.1328125 C105.93359375 215.8671875 86.30078125 176.6015625 66.66796875 137.3359375 C66.331604 136.66328857 65.99523926 135.99063965 65.64868164 135.29760742 C65.01349225 134.0270673 64.3785592 132.75639899 63.74389648 131.4855957 C62.1869343 128.36879036 60.62495419 125.25465729 59.0546875 122.14453125 C55.43186633 114.95500835 51.91531862 107.72808823 48.5 100.4375 C45.22835627 93.46480057 41.75252035 86.65328968 38.07617188 79.88647461 C36.07120596 76.16202906 34.16542461 72.39407276 32.28515625 68.60546875 C31.58149796 67.19293436 30.87780205 65.7804187 30.17407227 64.36791992 C29.63594406 63.28636124 29.63594406 63.28636124 29.08694458 62.18295288 C27.32305442 58.64046399 25.55185415 55.10163646 23.78125 51.5625 C23.06897372 50.13803918 22.35673429 48.71355994 21.64453125 47.2890625 C21.29084473 46.58168945 20.9371582 45.87431641 20.57275391 45.14550781 C19.50032552 43.00065104 18.42789714 40.85579427 17.35546875 38.7109375 C17.00202393 38.00420898 16.6485791 37.29748047 16.28442383 36.56933594 C15.57801026 35.15618512 14.87211224 33.74277646 14.16674805 32.32910156 C12.37597606 28.74172581 10.575515 25.15975224 8.7578125 21.5859375 C8.39465942 20.86865479 8.03150635 20.15137207 7.65734863 19.41235352 C6.97083473 18.05697509 6.28119733 16.70317211 5.58776855 15.35131836 C3.07935556 10.38654087 1.24965529 5.41517292 0 0 Z " fill="#003562" transform="translate(203,40)"/>
<path d="M0 0 C0.66 0 1.32 0 2 0 C2.61875 1.4540625 2.61875 1.4540625 3.25 2.9375 C3.83308924 4.29177179 4.4164372 5.6459322 5 7 C5.26683594 7.6290625 5.53367188 8.258125 5.80859375 8.90625 C9.20793429 16.7625037 13.14373863 24.36171716 17 32 C20.03492556 38.02382865 23.0658637 44.04965596 26.09350586 50.07714844 C27.00065428 51.88122854 27.90921697 53.6845981 28.8190918 55.48730469 C30.15267049 58.13029703 31.48112603 60.77580923 32.80859375 63.421875 C33.21581161 64.22598816 33.62302948 65.03010132 34.04258728 65.85858154 C34.41710526 66.60746643 34.79162323 67.35635132 35.17749023 68.12792969 C35.50643784 68.78138367 35.83538544 69.43483765 36.17430115 70.10809326 C37.03468758 72.07947893 37.63422173 73.87946429 38 76 C37.0625 78.25 37.0625 78.25 36 80 C35.34 80 34.68 80 34 80 C33.71769531 80.87140625 33.43539062 81.7428125 33.14453125 82.640625 C30.15512708 91.41498536 26.27167146 99.78384895 22 108 C21.34 108 20.68 108 20 108 C19.731875 109.19625 19.46375 110.3925 19.1875 111.625 C18.25912994 115.37855376 16.86951157 118.60088806 15 122 C14.34 122 13.68 122 13 122 C12.34 124.64 11.68 127.28 11 130 C10.34 130 9.68 130 9 130 C8.5978125 131.794375 8.5978125 131.794375 8.1875 133.625 C7.25912994 137.37855376 5.86951157 140.60088806 4 144 C3.34 144 2.68 144 2 144 C1.57460938 145.31097656 1.57460938 145.31097656 1.140625 146.6484375 C-2.08883516 156.13774167 -6.41023173 165.10436665 -11 174 C-11.66 174 -12.32 174 -13 174 C-13.4021875 175.794375 -13.4021875 175.794375 -13.8125 177.625 C-14.74087006 181.37855376 -16.13048843 184.60088806 -18 188 C-18.66 188 -19.32 188 -20 188 C-20.24476074 189.14146484 -20.48952148 190.28292969 -20.74169922 191.45898438 C-21.93199612 196.2014251 -23.90592451 200.32238472 -26.1328125 204.65625 C-26.52951141 205.44398804 -26.92621033 206.23172607 -27.33493042 207.04333496 C-28.59075691 209.53278391 -29.85765091 212.01640071 -31.125 214.5 C-31.98381375 216.19754207 -32.84189401 217.89545544 -33.69921875 219.59375 C-35.79102498 223.73350691 -37.89276895 227.86807482 -40 232 C-40.66 232 -41.32 232 -42 232 C-42.2784375 233.546875 -42.2784375 233.546875 -42.5625 235.125 C-44.20155639 241.85120178 -47.80106332 247.91004567 -51 254 C-51.66 254 -52.32 254 -53 254 C-53.33 255.32 -53.66 256.64 -54 258 C-78.75 258.33 -103.5 258.66 -129 259 C-128.13206496 253.79238975 -126.94827612 250.55066453 -124.4375 246.125 C-123.71163466 244.80703807 -122.9877427 243.48798776 -122.265625 242.16796875 C-121.89244141 241.48782715 -121.51925781 240.80768555 -121.13476562 240.10693359 C-119.24046774 236.58976691 -117.46253007 233.0159673 -115.6875 229.4375 C-115.36257568 228.78346191 -115.03765137 228.12942383 -114.70288086 227.45556641 C-113.8008937 225.63755338 -112.90041254 223.8187934 -112 222 C-111.00104072 219.99947998 -110.00104262 217.99947835 -109 216 C-108.41863281 214.83726562 -107.83726563 213.67453125 -107.23828125 212.4765625 C-106.92802002 211.85612061 -106.61775879 211.23567871 -106.2980957 210.59643555 C-105.6205912 209.24125872 -104.94336022 207.88594512 -104.26635742 206.53051758 C-102.47533108 202.94562779 -100.68018785 199.36293829 -98.875 195.78515625 C-95.08393913 188.25997605 -91.39906298 180.71325831 -88 173 C-87.34 173 -86.68 173 -86 173 C-85.90847656 172.32582031 -85.81695312 171.65164062 -85.72265625 170.95703125 C-84.81546992 167.24492286 -83.1863495 164.05675242 -81.4375 160.6875 C-80.70687121 159.25398781 -79.97640701 157.82039171 -79.24609375 156.38671875 C-78.87210449 155.65759277 -78.49811523 154.9284668 -78.11279297 154.17724609 C-76.38493394 150.79658641 -74.69318289 147.39812109 -73 144 C-71.00700421 140.00815957 -69.01063819 136.01814412 -67 132.03515625 C-63.22256643 124.53931151 -59.56482232 117.00060055 -56.01757812 109.39306641 C-52.49070676 101.85568835 -48.75726092 94.4245874 -45 87 C-44.34 87 -43.68 87 -43 87 C-42.90976563 86.154375 -42.81953125 85.30875 -42.7265625 84.4375 C-41.90014656 80.52757512 -40.32186638 77.4373793 -38.375 74 C-37.64170021 72.66620404 -36.90996161 71.33154872 -36.1796875 69.99609375 C-35.81198242 69.32690918 -35.44427734 68.65772461 -35.06542969 67.96826172 C-32.55178982 63.32459431 -30.25133744 58.56975802 -27.91064453 53.83740234 C-26.26244998 50.51184948 -24.59878368 47.19402769 -22.9375 43.875 C-22.25905009 42.51826141 -21.58066344 41.1614912 -20.90234375 39.8046875 C-6.83203125 11.6640625 -6.83203125 11.6640625 -5.89306641 9.79394531 C-5.0428393 8.08605337 -4.21418058 6.36747442 -3.38671875 4.6484375 C-2 2 -2 2 0 0 Z " fill="#00B1EC" transform="translate(201,40)"/>
<path d="M0 0 C1.33804688 0.59941406 1.33804688 0.59941406 2.703125 1.2109375 C15.69346307 7.11944611 28.69871552 17.23742487 37.6875 28.25 C39.7042322 31.01742194 39.7042322 31.01742194 42 32 C42 32.99 42 33.98 42 35 C42.66 35 43.32 35 44 35 C44 35.66 44 36.32 44 37 C44.66 37 45.32 37 46 37 C47.38490744 38.8436029 48.68388849 40.75222264 49.9375 42.6875 C50.62714844 43.74324219 51.31679688 44.79898438 52.02734375 45.88671875 C57 53.73465347 57 53.73465347 57 56 C57.66 56 58.32 56 59 56 C70.79492694 85.98521091 70.79492694 85.98521091 72 99 C72.25305908 99.92159912 72.25305908 99.92159912 72.51123047 100.86181641 C73.11053204 103.48353626 73.12971443 105.89636683 73.1328125 108.5859375 C73.13490723 109.67527588 73.13700195 110.76461426 73.13916016 111.88696289 C73.13215088 113.61354126 73.13215088 113.61354126 73.125 115.375 C73.12161621 116.54861084 73.11823242 117.72222168 73.11474609 118.93139648 C73.04766712 130.19520435 72.74395609 141.02417562 70 152 C70 152.66 70 153.32 70 154 C71.20527344 154.23460937 72.41054688 154.46921875 73.65234375 154.7109375 C80.13109972 156.15066105 86.31490209 158.41223704 92.5625 160.625 C94.36170898 161.25535156 94.36170898 161.25535156 96.19726562 161.8984375 C99.13314177 162.92774866 102.06729381 163.96169884 105 165 C105 166.32 105 167.64 105 169 C103.03158051 170.87014742 101.18215618 172.42071998 99 174 C98.46197754 174.39251953 97.92395508 174.78503906 97.36962891 175.18945312 C95.69393512 176.39117785 94.00479057 177.57178395 92.3125 178.75 C85.95807873 183.22742038 79.9655814 188.01413197 74 193 C73.11441406 193.70382812 72.22882813 194.40765625 71.31640625 195.1328125 C68.98362116 196.94520379 68.98362116 196.94520379 67 199 C63.1862808 202.44867807 59.44210277 205.38699837 55 208 C54.67 208.66 54.34 209.32 54 210 C53.01 210 52.02 210 51 210 C50.67 210.99 50.34 211.98 50 213 C48.07421875 214.4296875 48.07421875 214.4296875 45.6875 215.875 C41.99711278 218.22448823 39.65090249 220.4970217 37 224 C32.65517241 227 32.65517241 227 30 227 C30 227.66 30 228.32 30 229 C29.34 229 28.68 229 28 229 C28 229.66 28 230.32 28 231 C25 233 25 233 22.3125 232.625 C21.549375 232.41875 20.78625 232.2125 20 232 C19.690625 230.081875 19.690625 230.081875 19.375 228.125 C18.37016356 223.04339857 16.80848777 218.2607517 15.125 213.375 C12.46988421 205.64510931 10.36266151 197.89724631 8.47216797 189.95117188 C6.5323466 181.93511584 4.41532102 173.96848251 1.71875 166.171875 C-1.03003792 157.86575497 -4 148.79384535 -4 140 C-4.66 139.67 -5.32 139.34 -6 139 C-6.6328125 136.71484375 -6.6328125 136.71484375 -7.125 133.9375 C-7.29257812 133.01839844 -7.46015625 132.09929687 -7.6328125 131.15234375 C-7.75398438 130.44207031 -7.87515625 129.73179687 -8 129 C-2.88175752 129.61817734 1.93503972 130.69848222 6.875 132.1875 C7.5980835 132.40237061 8.32116699 132.61724121 9.06616211 132.83862305 C17.14142698 135.27921328 25.0752075 138.11374891 33 141 C33.06058594 140.443125 33.12117188 139.88625 33.18359375 139.3125 C33.30927734 138.1678125 33.30927734 138.1678125 33.4375 137 C33.52773438 136.175 33.61796875 135.35 33.7109375 134.5 C33.96219693 132.32694548 34.25683922 130.16582494 34.5625 128 C35.48582307 120.59875954 34.99776721 113.36623198 34 106 C33.87882812 104.94683594 33.75765625 103.89367187 33.6328125 102.80859375 C31.54969544 90.27131513 27.22155508 77.90384037 19.32421875 67.87109375 C18 66 18 66 18 64 C17.34 63.67 16.68 63.34 16 63 C15.67 62.01 15.34 61.02 15 60 C14.34 60 13.68 60 13 60 C12.10952165 58.59578413 11.21955871 57.19123908 10.33203125 55.78515625 C7.75273318 52.328443 4.32560095 49.71250133 1 47 C0.19691406 46.34386719 -0.60617187 45.68773437 -1.43359375 45.01171875 C-9.13031881 38.97851722 -16.36889737 34.95602665 -26 33 C-26 32.34 -26 31.68 -26 31 C-26.90878906 30.90912109 -26.90878906 30.90912109 -27.8359375 30.81640625 C-28.67382812 30.73261719 -29.51171875 30.64882812 -30.375 30.5625 C-31.18710937 30.48128906 -31.99921875 30.40007812 -32.8359375 30.31640625 C-34.61092223 30.13890778 -36.3853458 29.95424182 -38.15673828 29.74389648 C-44.83096103 28.99035521 -51.41303239 28.88199391 -58.125 28.9375 C-59.176875 28.94201172 -60.22875 28.94652344 -61.3125 28.95117188 C-63.87506221 28.96281989 -66.43749877 28.97917447 -69 29 C-69.12375 28.195625 -69.2475 27.39125 -69.375 26.5625 C-69.58125 25.716875 -69.7875 24.87125 -70 24 C-70.66 23.67 -71.32 23.34 -72 23 C-72.50829283 20.89905631 -73.00448072 18.79431565 -73.43359375 16.67578125 C-74.65586129 10.90162078 -76.22885023 5.19168881 -78.1875 -0.375 C-79.02593486 -3.08378955 -79.06115432 -5.1869013 -79 -8 C-52.4804083 -13.90887454 -24.40740817 -12.5474704 0 0 Z " fill="#003665" transform="translate(386,92)"/>
<path d="M0 0 C7.10730859 0.49165512 12.94352854 2.18206364 19.5625 4.75 C21.51847161 5.48589557 23.47551174 6.21895711 25.43359375 6.94921875 C26.38476074 7.30419434 27.33592773 7.65916992 28.31591797 8.02490234 C31.88594031 9.32185243 35.48874733 10.4676789 39.125 11.5625 C45.20616785 13.40868019 51.19767785 15.43907956 57.1875 17.5625 C62.59801962 19.47988906 67.99892038 21.35461932 73.5 23 C79.2958658 24.74482871 85.02601951 26.6592699 90.75 28.625 C91.64525391 28.92664063 92.54050781 29.22828125 93.46289062 29.5390625 C94.71102539 29.9721875 94.71102539 29.9721875 95.984375 30.4140625 C97.10924316 30.80005615 97.10924316 30.80005615 98.25683594 31.19384766 C100 32 100 32 101 34 C100.56429687 34.556875 100.12859375 35.11375 99.6796875 35.6875 C92.40719144 44.87248876 92.40719144 44.87248876 85.75 54.5 C85.1725 55.325 84.595 56.15 84 57 C83.34 57 82.68 57 82 57 C81.89204102 57.58031982 81.78408203 58.16063965 81.67285156 58.75854492 C80.91111392 61.29610418 79.86622184 62.78410115 78.234375 64.86328125 C77.67363281 65.58580078 77.11289063 66.30832031 76.53515625 67.05273438 C75.94605469 67.79845703 75.35695312 68.54417969 74.75 69.3125 C73.59789759 70.78693218 72.44684281 72.26218361 71.296875 73.73828125 C70.73935547 74.44936035 70.18183594 75.16043945 69.60742188 75.89306641 C68.07328144 77.90394611 66.63310803 79.95731436 65.203125 82.04296875 C64.47609375 83.01878906 63.7490625 83.99460937 63 85 C62.34 85 61.68 85 61 85 C60.88527344 85.58265625 60.77054688 86.1653125 60.65234375 86.765625 C59.95175938 89.16523135 59.01807405 90.72860933 57.5625 92.75 C57.13066406 93.36359375 56.69882813 93.9771875 56.25390625 94.609375 C55.63322266 95.29773438 55.63322266 95.29773438 55 96 C54.34 96 53.68 96 53 96 C52.814375 96.9590625 52.814375 96.9590625 52.625 97.9375 C52.41875 98.618125 52.2125 99.29875 52 100 C51.01 100.495 51.01 100.495 50 101 C48.9893085 102.66020495 47.99194014 104.32852385 47 106 C45.32610777 108.31401194 43.57096661 110.56236512 41.8125 112.8125 C41.34908203 113.40998047 40.88566406 114.00746094 40.40820312 114.62304688 C39.27456544 116.08392019 38.13761932 117.54222515 37 119 C33.63973414 115.28183601 32.53815675 111.07089061 31.125 106.375 C30.86960449 105.54701904 30.61420898 104.71903809 30.35107422 103.8659668 C27.73123313 95.29186769 25.33691123 86.6548438 23 78 C16.88232784 79.6707048 16.88232784 79.6707048 11 82 C10.67 82.66 10.34 83.32 10 84 C8.69107565 84.89112037 7.35218996 85.73850924 6 86.5625 C1.31205472 89.58528711 -2.35229304 93.18075764 -6.15234375 97.2421875 C-8 99 -8 99 -10 99 C-10.28302979 99.58338135 -10.56605957 100.1667627 -10.85766602 100.76782227 C-11.91092789 102.82594864 -13.04490603 104.76023272 -14.27734375 106.71484375 C-14.70853516 107.40126953 -15.13972656 108.08769531 -15.58398438 108.79492188 C-16.03064453 109.50197266 -16.47730469 110.20902344 -16.9375 110.9375 C-18.24907296 113.02036186 -19.55955071 115.10363021 -20.859375 117.19384766 C-21.74487474 118.59601526 -22.67452664 119.97034315 -23.62109375 121.33203125 C-33.95199041 141.32070667 -34.5928886 168.93022685 -28 190 C-23.71992635 202.9503699 -17.24072528 213.78796677 -8.8203125 224.40625 C-7.17289698 226.75364036 -6.25220275 228.17040819 -6 231 C-7.3125 233.25 -7.3125 233.25 -9 235 C-9.66 235 -10.32 235 -11 235 C-11.20625 235.66 -11.4125 236.32 -11.625 237 C-15.19613107 244.7915587 -21.65111691 251.37498744 -27 258 C-29.89453125 257.6484375 -29.89453125 257.6484375 -33 257 C-34.6875 254.625 -34.6875 254.625 -36 252 C-36.7734375 251.2575 -36.7734375 251.2575 -37.5625 250.5 C-39.42739894 248.5540185 -40.11476258 246.51952188 -41 244 C-41.66 244 -42.32 244 -43 244 C-45.97575187 240.16284627 -48.5683355 236.24088963 -50.91015625 231.98046875 C-51.7070137 230.53241597 -52.53130009 229.09936309 -53.37109375 227.67578125 C-71.6013519 195.99774826 -73.58160315 158.65135295 -65.1953125 123.640625 C-58.26605006 98.98962055 -43.68202033 74.57331411 -23 59 C-22.34 59 -21.68 59 -21 59 C-21 58.34 -21 57.68 -21 57 C-18.06092329 54.62221421 -14.80136934 52.67049174 -11.625 50.625 C-10.75488281 50.0475 -9.88476562 49.47 -8.98828125 48.875 C-3.82873279 45.52702633 1.19212737 42.90346229 6.99072266 40.83740234 C9.17858919 40.07519082 9.17858919 40.07519082 11 38 C10.69707031 37.04222656 10.39414063 36.08445313 10.08203125 35.09765625 C7.74668585 27.68641319 5.45532972 20.26355659 3.25 12.8125 C3.03964111 12.10681885 2.82928223 11.4011377 2.61254883 10.67407227 C1.57245178 7.13774229 0.64841101 3.62969205 0 0 Z " fill="#00B0EA" transform="translate(77,9)"/>
<path d="M0 0 C1.98 0.495 1.98 0.495 4 1 C4 1.66 4 2.32 4 3 C4.66 3 5.32 3 6 3 C6.25394531 3.58007812 6.50789062 4.16015625 6.76953125 4.7578125 C8.74090598 9.23216863 10.77575 13.64417709 13 18 C13.60526192 19.20778509 14.20932642 20.41617064 14.8125 21.625 C15.15410156 22.30820313 15.49570313 22.99140625 15.84765625 23.6953125 C29.16796875 50.3359375 29.16796875 50.3359375 30.10327148 52.20727539 C30.95809217 53.91621857 31.81493178 55.62415142 32.671875 57.33203125 C33.49252193 58.9805661 34.29367272 60.63917004 35.0625 62.3125 C35.89321682 64.18189338 35.89321682 64.18189338 38 65 C37.67708984 66.07314453 37.67708984 66.07314453 37.34765625 67.16796875 C36.90869223 70.74379923 37.72541174 72.16848337 39.4375 75.3125 C40.27474609 76.89224609 40.27474609 76.89224609 41.12890625 78.50390625 C41.74636719 79.65761719 42.36382812 80.81132813 43 82 C44.30874262 84.57487502 45.59161001 87.16241341 46.875 89.75 C48.99214654 94.00180293 51.12199291 98.24604342 53.2890625 102.47265625 C53.65918457 103.19936523 54.02930664 103.92607422 54.41064453 104.67480469 C55.12289173 106.07248208 55.83982812 107.46778235 56.56201172 108.86035156 C58.04032302 111.7722897 59 113.68644525 59 117 C59.66 117.33 60.32 117.66 61 118 C62.38230395 120.54449581 63.6799498 123.08240976 64.9375 125.6875 C65.28490234 126.39583984 65.63230469 127.10417969 65.99023438 127.83398438 C66.67868556 129.23811363 67.36498524 130.64329993 68.04907227 132.04956055 C69.91693664 135.88072062 71.84029797 139.68378289 73.76171875 143.48828125 C77.23802819 150.38395591 80.62996432 157.30483069 83.875 164.3125 C87.09774232 171.25544957 90.60734261 178.01375477 94.21386719 184.76391602 C97.59774756 191.13689071 100.69911142 197.6163241 103.74584961 204.15576172 C106.02525269 209.02056855 108.4279245 213.78389033 111 218.5 C114.50533096 224.92965332 117.67416496 231.49108739 120.76098633 238.13110352 C122.42636127 241.70834501 124.1043382 245.25799267 125.97265625 248.734375 C126.53855469 249.79140625 127.10445312 250.8484375 127.6875 251.9375 C128.43580078 253.28134766 128.43580078 253.28134766 129.19921875 254.65234375 C130 257 130 257 129.05004883 259.14672852 C128.70353271 259.75830811 128.3570166 260.3698877 128 261 C103.57419986 261.02334927 79.1484014 261.04098917 54.72259235 261.05181217 C43.38154541 261.05697081 32.04050539 261.0640053 20.69946289 261.07543945 C10.81585456 261.08539946 0.93225125 261.09185658 -8.95136195 261.09408849 C-14.18575303 261.09539335 -19.42012974 261.09846508 -24.65451622 261.10573006 C-29.58001291 261.11251101 -34.50548931 261.11461271 -39.43099022 261.11310768 C-41.23979299 261.11338307 -43.04859643 261.1153759 -44.85739517 261.11920547 C-47.32546192 261.12417509 -49.79345189 261.12298617 -52.26152039 261.12025452 C-52.97845446 261.12316736 -53.69538853 261.1260802 -54.43404788 261.12908131 C-58.09304309 261.11812332 -61.43548606 260.81060987 -65 260 C-67.05434881 259.91531062 -69.11114703 259.8822177 -71.16723633 259.88647461 C-72.38812454 259.88655014 -73.60901276 259.88662567 -74.86689758 259.88670349 C-76.17539169 259.89186478 -77.4838858 259.89702606 -78.83203125 259.90234375 C-80.19251961 259.90421039 -81.55300865 259.90563313 -82.91349792 259.90663147 C-86.48255287 259.91043725 -90.05156669 259.92025086 -93.62060547 259.93133545 C-97.26724695 259.94159137 -100.91389511 259.94613803 -104.56054688 259.95117188 C-111.70704801 259.96187497 -118.85352131 259.97892796 -126 260 C-126.33 258.68 -126.66 257.36 -127 256 C-43.51 256 39.98 256 126 256 C120.39 244.78 114.78 233.56 109 222 C94.55598958 193.11197917 80.11197917 164.22395833 65.66796875 135.3359375 C65.331604 134.66328857 64.99523926 133.99063965 64.64868164 133.29760742 C64.01349225 132.0270673 63.3785592 130.75639899 62.74389648 129.4855957 C61.1869343 126.36879036 59.62495419 123.25465729 58.0546875 120.14453125 C54.43186633 112.95500835 50.91531862 105.72808823 47.5 98.4375 C44.22835627 91.46480057 40.75252035 84.65328968 37.07617188 77.88647461 C35.07120596 74.16202906 33.16542461 70.39407276 31.28515625 66.60546875 C30.58149796 65.19293436 29.87780205 63.7804187 29.17407227 62.36791992 C28.63594406 61.28636124 28.63594406 61.28636124 28.08694458 60.18295288 C26.32305442 56.64046399 24.55185415 53.10163646 22.78125 49.5625 C22.06897372 48.13803918 21.35673429 46.71355994 20.64453125 45.2890625 C20.29084473 44.58168945 19.9371582 43.87431641 19.57275391 43.14550781 C18.50032552 41.00065104 17.42789714 38.85579427 16.35546875 36.7109375 C16.00202393 36.00412842 15.6485791 35.29731934 15.28442383 34.5690918 C14.57827107 33.15662451 13.87237593 31.7440284 13.16674805 30.33129883 C11.36989868 26.73467431 9.56809046 23.14066782 7.7578125 19.55078125 C7.21308289 18.4680896 7.21308289 18.4680896 6.65734863 17.36352539 C5.96915576 15.99598593 5.2793989 14.62923192 4.58776855 13.26342773 C0 4.13548776 0 4.13548776 0 0 Z " fill="#00305D" transform="translate(204,42)"/>
<path d="M0 0 C9.22270478 -0.02313993 18.44539961 -0.04092354 27.66812706 -0.05181217 C31.95031126 -0.05703738 36.23247564 -0.06412848 40.51464844 -0.07543945 C44.64487529 -0.08628117 48.77508305 -0.09227957 52.90532303 -0.09487724 C54.4834282 -0.09672917 56.06153229 -0.10034535 57.63962936 -0.10573006 C59.84489984 -0.11295752 62.05009074 -0.11399022 64.25537109 -0.11352539 C65.51223724 -0.115746 66.76910339 -0.11796661 68.0640564 -0.12025452 C71 0 71 0 73 1 C74.57720066 1.09048137 76.15823307 1.11754933 77.73802185 1.11352539 C78.73772003 1.1134549 79.73741821 1.1133844 80.76741028 1.11331177 C82.41866158 1.10556229 82.41866158 1.10556229 84.10327148 1.09765625 C85.25941956 1.09619598 86.41556763 1.09473572 87.60675049 1.0932312 C90.12386436 1.08941782 92.64097552 1.08329356 95.15807915 1.07516479 C99.13704834 1.06244901 103.1160017 1.05575293 107.09498596 1.05102539 C116.26105345 1.03896906 125.42709193 1.01692161 134.59313965 0.99479675 C142.99014116 0.97462767 151.38713291 0.95655386 159.78415352 0.94658184 C164.37878822 0.94078967 168.97336493 0.9272016 173.56797791 0.91235352 C175.96776284 0.90872206 178.36754821 0.9053702 180.76733398 0.90234375 C181.86614395 0.89717743 182.96495392 0.89201111 184.09706116 0.88668823 C185.09957916 0.88661774 186.10209717 0.88654724 187.13499451 0.88647461 C188.44327036 0.88314369 188.44327036 0.88314369 189.77797604 0.87974548 C192 1 192 1 195 2 C195.99 1.67 196.98 1.34 198 1 C198.99 1.33 199.98 1.66 201 2 C201.99 1.67 202.98 1.34 204 1 C204.99 1.33 205.98 1.66 207 2 C207.66 1.835 208.32 1.67 209 1.5 C211 1 211 1 214 2 C215.33602205 1.67761207 216.66891752 1.34221092 218 1 C220.08234592 0.93256652 222.16668557 0.91485528 224.25 0.9375 C225.86648438 0.95103516 225.86648438 0.95103516 227.515625 0.96484375 C228.33546875 0.97644531 229.1553125 0.98804688 230 1 C230.33 1.66 230.66 2.32 231 3 C229 5 229 5 226.23785686 5.24888897 C224.45839782 5.24807182 224.45839782 5.24807182 222.64299011 5.24723816 C221.65341536 5.25085978 221.65341536 5.25085978 220.64384919 5.25455457 C218.42286724 5.26021133 216.20217041 5.25151363 213.98120117 5.24291992 C212.39297914 5.24399235 210.8047575 5.24593044 209.21653748 5.24867249 C204.89410557 5.25353148 200.57177646 5.2458511 196.24935699 5.23571944 C191.72998527 5.22695136 187.21061689 5.22869618 182.6912384 5.2290802 C175.09744543 5.22814269 167.50369233 5.21944869 159.90991211 5.20581055 C151.13037618 5.19010107 142.35088399 5.18481183 133.57133502 5.1855461 C125.13088193 5.1861567 116.69044309 5.18104726 108.24999428 5.17275429 C104.65641481 5.16922381 101.06284038 5.16739137 97.46925926 5.16686058 C93.23481841 5.1658553 89.00041423 5.15974345 84.76598549 5.14969444 C83.21196848 5.14677563 81.65794725 5.14554282 80.10392761 5.14612198 C77.9818998 5.1466135 75.85997435 5.14094872 73.73796082 5.13371277 C72.55052371 5.13203692 71.36308661 5.13036108 70.13966656 5.12863445 C67.29652421 5.01214882 64.76955205 4.6113789 62 4 C59.94565119 3.91531062 57.88885297 3.8822177 55.83276367 3.88647461 C54.61187546 3.88655014 53.39098724 3.88662567 52.13310242 3.88670349 C50.82460831 3.89186478 49.5161142 3.89702606 48.16796875 3.90234375 C46.80748039 3.90421039 45.44699135 3.90563313 44.08650208 3.90663147 C40.51744713 3.91043725 36.94843331 3.92025086 33.37939453 3.93133545 C29.73275305 3.94159137 26.08610489 3.94613803 22.43945312 3.95117188 C15.29295199 3.96187497 8.14647869 3.97892796 1 4 C0.67 2.68 0.34 1.36 0 0 Z " fill="#002E5B" transform="translate(77,298)"/>
<path d="M0 0 C1.32 0.33 2.64 0.66 4 1 C4 1.66 4 2.32 4 3 C4.66 3 5.32 3 6 3 C6.25394531 3.58007812 6.50789062 4.16015625 6.76953125 4.7578125 C8.74090598 9.23216863 10.77575 13.64417709 13 18 C13.60526192 19.20778509 14.20932642 20.41617064 14.8125 21.625 C15.15410156 22.30820313 15.49570313 22.99140625 15.84765625 23.6953125 C29.16796875 50.3359375 29.16796875 50.3359375 30.10327148 52.20727539 C30.95809217 53.91621857 31.81493178 55.62415142 32.671875 57.33203125 C33.49252193 58.9805661 34.29367272 60.63917004 35.0625 62.3125 C35.89321682 64.18189338 35.89321682 64.18189338 38 65 C37.34 66.98 36.68 68.96 36 71 C33 70 33 70 31.81990051 68.24107361 C31.44209946 67.47436844 31.0642984 66.70766327 30.67504883 65.91772461 C30.24061966 65.04848862 29.80619049 64.17925262 29.3585968 63.28367615 C28.89608017 62.33283646 28.43356354 61.38199677 27.95703125 60.40234375 C27.46974045 59.42068741 26.98244965 58.43903107 26.48039246 57.42762756 C24.91500298 54.26881127 23.36355914 51.10337361 21.8125 47.9375 C20.78673077 45.86087171 19.76004807 43.78469437 18.73242188 41.70898438 C16.73627549 37.67435845 14.74600005 33.63692197 12.76025391 29.59716797 C10.01444299 24.01730108 7.23390716 18.45518715 4.41889954 12.90989685 C0 4.14454124 0 4.14454124 0 0 Z " fill="#001324" transform="translate(204,42)"/>
<path d="M0 0 C22.77 0 45.54 0 69 0 C68.67 1.65 68.34 3.3 68 5 C67.12980225 4.83701416 66.25960449 4.67402832 65.36303711 4.50610352 C59.3427278 3.65251198 53.25767763 3.87781205 47.19140625 3.90234375 C45.85619663 3.90421167 44.52098631 3.9056338 43.18577576 3.90663147 C39.69237332 3.91042723 36.19901327 3.920232 32.70562744 3.93133545 C29.1325335 3.9416132 25.55943263 3.94614265 21.98632812 3.95117188 C14.99086814 3.96185725 7.99543611 3.97889785 1 4 C0.67 2.68 0.34 1.36 0 0 Z " fill="#00060B" transform="translate(77,298)"/>
<path d="M0 0 C3.71599191 -0.20086443 4.77208445 -0.1519437 8 2 C9.1315918 3.90087891 9.1315918 3.90087891 10.19921875 6.2265625 C10.79984131 7.51494019 10.79984131 7.51494019 11.41259766 8.8293457 C11.83331543 9.75191162 12.2540332 10.67447754 12.6875 11.625 C13.58338929 13.54875789 14.48053695 15.47193024 15.37890625 17.39453125 C15.82250488 18.3479541 16.26610352 19.30137695 16.72314453 20.28369141 C18.46536051 23.98998108 20.28101208 27.65600574 22.125 31.3125 C22.4439624 31.94623535 22.7629248 32.5799707 23.09155273 33.23291016 C23.73198962 34.50404345 24.37301859 35.77487862 25.01464844 37.04541016 C26.76909067 40.52560453 28.50849355 44.01331991 30.25 47.5 C30.88014433 48.76044867 31.51035043 50.02086646 32.140625 51.28125 C32.59018555 52.18423828 32.59018555 52.18423828 33.04882812 53.10546875 C33.73208148 54.46636351 34.42460205 55.82262031 35.12304688 57.17578125 C35.48978516 57.89121094 35.85652344 58.60664062 36.234375 59.34375 C36.57178711 59.99537109 36.90919922 60.64699219 37.25683594 61.31835938 C38 63 38 63 38 65 C38.99 65.495 38.99 65.495 40 66 C38.02 66.495 38.02 66.495 36 67 C35.7525 66.154375 35.505 65.30875 35.25 64.4375 C34.27279365 61.75018253 33.32162512 59.72354187 31.875 57.3125 C30 54 30 54 30 51 C29.34 50.67 28.68 50.34 28 50 C28 49.01 28 48.02 28 47 C27.34 46.67 26.68 46.34 26 46 C24.94862741 44.02652194 23.95692318 42.02096463 23 40 C22.48179687 38.99839844 21.96359375 37.99679688 21.4296875 36.96484375 C20.91664063 35.96582031 20.40359375 34.96679688 19.875 33.9375 C19.35679687 32.93589844 18.83859375 31.93429688 18.3046875 30.90234375 C17 28 17 28 16.4453125 25.19140625 C16.22488281 24.10666016 16.22488281 24.10666016 16 23 C15.34 22.67 14.68 22.34 14 22 C13.10488204 20.45075737 12.28106649 18.85975899 11.5 17.25 C11.0771875 16.38890625 10.654375 15.5278125 10.21875 14.640625 C7 7.66666667 7 7.66666667 7 5 C6.34 5 5.68 5 5 5 C5 4.34 5 3.68 5 3 C3.35 2.67 1.7 2.34 0 2 C0 1.34 0 0.68 0 0 Z " fill="#00455E" transform="translate(203,40)"/>
<path d="M0 0 C1.32 0.33 2.64 0.66 4 1 C4 1.66 4 2.32 4 3 C4.66 3 5.32 3 6 3 C6.25394531 3.58007812 6.50789062 4.16015625 6.76953125 4.7578125 C8.74090598 9.23216863 10.77575 13.64417709 13 18 C13.60526192 19.20778509 14.20932642 20.41617064 14.8125 21.625 C15.15410156 22.30820313 15.49570313 22.99140625 15.84765625 23.6953125 C29.16796875 50.3359375 29.16796875 50.3359375 30.10327148 52.20727539 C30.95809217 53.91621857 31.81493178 55.62415142 32.671875 57.33203125 C33.49252193 58.9805661 34.29367272 60.63917004 35.0625 62.3125 C35.89321682 64.18189338 35.89321682 64.18189338 38 65 C37.34 66.32 36.68 67.64 36 69 C32.72793123 65.17054412 30.89083998 60.72475269 28.8125 56.1875 C26.00839761 50.15767738 23.12588888 44.21111719 19.9375 38.375 C16.64485394 32.34148846 13.69267083 26.18782971 10.80639648 19.95092773 C8.4240533 14.8274871 5.84310646 9.88658922 3 5 C2.01 5.495 2.01 5.495 1 6 C0.67 4.02 0.34 2.04 0 0 Z " fill="#001E3F" transform="translate(204,42)"/>
<path d="M0 0 C0.99 0 1.98 0 3 0 C3.33 0.66 3.66 1.32 4 2 C25.45 2 46.9 2 69 2 C69.495 3.98 69.495 3.98 70 6 C69.01 5.505 69.01 5.505 68 5 C66.19793348 4.94792262 64.3937602 4.96306266 62.59155273 5.01000977 C61.45954941 5.03656143 60.32754608 5.0631131 59.16123962 5.09046936 C57.31605492 5.14043312 57.31605492 5.14043312 55.43359375 5.19140625 C52.83789782 5.24967058 50.24219442 5.30760262 47.64648438 5.36523438 C43.54729814 5.46091206 39.44827109 5.56169103 35.34936523 5.66870117 C31.39851346 5.77121938 27.44735633 5.85615876 23.49609375 5.94140625 C22.28014023 5.97673965 21.06418671 6.01207306 19.81138611 6.04847717 C13.16729391 6.18319056 7.4163895 5.76121902 1 4 C0.67 2.68 0.34 1.36 0 0 Z " fill="#001D3E" transform="translate(74,299)"/>
<path d="M0 0 C0.99 0.33 1.98 0.66 3 1 C3 1.66 3 2.32 3 3 C10.71136437 5.12252678 17.82046441 5.18268236 25.78515625 4.9765625 C27.08198837 4.95153656 28.3788205 4.92651062 29.71495056 4.90072632 C33.13293631 4.83464565 36.55050049 4.75563571 39.96813965 4.67376709 C43.46752971 4.59228394 46.96716416 4.5232563 50.46679688 4.453125 C57.31148468 4.31415141 64.15580744 4.1614931 71 4 C71 4.66 71 5.32 71 6 C66.47633546 7.15115122 62.0672259 7.07203586 57.4375 7 C50.62368169 6.94199323 43.86465336 7.10351013 37.0625 7.5 C30.05917388 7.89651896 23.0774643 8.10956978 16.0625 8.125 C15.2279126 8.12951172 14.3933252 8.13402344 13.53344727 8.13867188 C5.38782647 8.1185613 5.38782647 8.1185613 2 7 C0 4 0 4 0 0 Z " fill="#00455E" transform="translate(72,299)"/>
<path d="M0 0 C0.99 0 1.98 0 3 0 C2.67 0.99 2.34 1.98 2 3 C1.34 3 0.68 3 0 3 C-0.66 4.98 -1.32 6.96 -2 9 C-3 6 -3 6 -1.5625 2.8125 C-1.046875 1.884375 -0.53125 0.95625 0 0 Z " fill="#003150" transform="translate(259,70)"/>
<path d="" fill="#004A5D" transform="translate(0,0)"/>
</svg>
