
<!--
Licensed to the Apache Software Foundation (ASF) under one
or more contributor license agreements.  See the NOTICE file
distributed with this work for additional information
regarding copyright ownership.  The ASF licenses this file
to you under the Apache License, Version 2.0 (the
"License"); you may not use this file except in compliance
with the License.  You may obtain a copy of the License at

    http://www.apache.org/licenses/LICENSE-2.0

Unless required by applicable law or agreed to in writing, software
distributed under the License is distributed on an "AS IS" BASIS,
WITHOUT WARRANTIES OR CONDITIONS OF ANY KIND, either express or implied.
See the License for the specific language governing permissions and
limitations under the License.
/-->

<svg width="16" height="16" viewBox="0 0 16 16" fill="" xmlns="http://www.w3.org/2000/svg">
<g clip-path="url(#clip0_68_137)">
<path fill-rule="evenodd" clip-rule="evenodd" d="M1 2C1 1.44772 1.44772 1 2 1H14C14.5523 1 15 1.44772 15 2V14C15 14.5523 14.5523 15 14 15H2C1.44772 15 1 14.5523 1 14V2ZM2.29999 2.3H13.7V13.7H2.29999V2.3ZM3.95733 7.72443L6.26391 5.41785C6.37516 5.30661 6.37516 5.12625 6.26391 5.01502L3.95733 2.70843C3.8461 2.59719 3.66574 2.59719 3.5545 2.70843L3.28547 2.97746C3.17441 3.08851 3.1742 3.2685 3.28499 3.37982L5.11301 5.21643L3.28498 7.05305C3.17419 7.16437 3.1744 7.34435 3.28546 7.45541L3.5545 7.72443C3.66573 7.83568 3.84608 7.83568 3.95733 7.72443ZM10.798 7.21036V7.59015C10.798 7.74747 10.6704 7.875 10.5131 7.875H6.90504C6.74772 7.875 6.6202 7.74747 6.6202 7.59015V7.21036C6.6202 7.05304 6.74772 6.92551 6.90504 6.92551H10.5131C10.6704 6.92551 10.798 7.05304 10.798 7.21036Z" fill=""/>
</g>
<defs>
<clipPath id="clip0_68_137">
<rect width="14" height="14" fill="" transform="translate(1 1)"/>
</clipPath>
</defs>
</svg>
