<svg xmlns="http://www.w3.org/2000/svg" xmlns:xlink="http://www.w3.org/1999/xlink" fill="none" version="1.1" width="120.462646484375" height="28.4443359375" viewBox="0 0 120.462646484375 28.4443359375"><g style="mix-blend-mode:passthrough"><g style="mix-blend-mode:passthrough"><path d="M42.0463778515625,8.85205078125L45.0559978515625,20.92335078125L50.7647978515625,8.85205078125L56.4956978515625,8.85205078125L54.3142978515625,28.09535078125L49.396797851562496,28.09535078125L50.7647978515625,17.960790781249997L46.4166978515625,26.80425078125L42.0463778515625,26.80425078125L39.8575378515625,18.30568078125L38.7779078515625,28.09535078125L33.8677978515625,28.09535078125L36.0492478515625,10.14319078125L34.9474278515625,8.85205078125L42.0463778515625,8.85205078125ZM76.1878978515625,8.85205078125Q76.5797978515625,8.85205078125,76.9199978515625,9.02007578125Q77.2674978515625,9.18810078125,77.50419785156251,9.49762178125Q77.74819785156251,9.79829778125,77.82949785156251,10.21394078125Q77.9182978515625,10.62074078125,77.8073978515625,11.13366078125L75.8994978515625,28.09535078125L60.6219978515625,28.09535078125Q60.2299978515625,28.09535078125,59.882497851562505,27.92735078125Q59.542297851562495,27.75045078125,59.298297851562495,27.44975078125Q59.0616978515625,27.14025078125,58.9728978515625,26.71575078125Q58.8915978515625,26.29125078125,59.002497851562495,25.81375078125L60.9103978515625,8.85205078125L76.1878978515625,8.85205078125ZM65.8204978515625,12.12412078125L64.4597978515625,24.82325078125L70.7305978515625,24.82325078125L72.3499978515625,12.12412078125L65.8204978515625,12.12412078125ZM98.9784978515625,8.85205078125L97.8988978515625,18.45602078125Q97.8988978515625,18.924750781249998,97.71399785156251,19.35805078125Q97.5290978515625,19.782550781250002,97.2184978515625,20.092050781250002Q96.9079978515625,20.39275078125,96.52339785156249,20.56955078125Q96.13889785156249,20.73765078125,95.70999785156249,20.73765078125L92.1604978515625,20.73765078125L97.8988978515625,28.09535078125L91.9090978515625,28.09535078125L86.4517978515625,20.73765078125L85.6309978515625,28.09535078125L80.1810978515625,28.09535078125L82.0814978515625,10.14319078125L81.2606978515625,8.85205078125L98.9784978515625,8.85205078125ZM87.2799978515625,12.12412078125L86.7105978515625,17.465550781250002L92.7298978515625,17.465550781250002L93.2697978515625,12.12412078125L87.2799978515625,12.12412078125ZM118.7815978515625,8.85205078125Q119.1734978515625,8.85205078125,119.5136978515625,9.02007578125Q119.8611978515625,9.18810078125,120.0978978515625,9.49762178125Q120.3418978515625,9.79829778125,120.4231978515625,10.21394078125Q120.5119978515625,10.62074078125,120.4009978515625,11.13366078125L118.4931978515625,28.09535078125L103.2156978515625,28.09535078125Q102.8236978515625,28.09535078125,102.4761978515625,27.92735078125Q102.1359978515625,27.75045078125,101.8919978515625,27.44975078125Q101.6553978515625,27.14025078125,101.5665978515625,26.71575078125Q101.4852978515625,26.29125078125,101.5961978515625,25.81375078125L103.5040978515625,8.85205078125L118.7815978515625,8.85205078125ZM108.4141978515625,12.12412078125L107.0535978515625,24.82325078125L113.3242978515625,24.82325078125L114.9436978515625,12.12412078125L108.4141978515625,12.12412078125Z" fill="#0036A1" fill-opacity="1"/></g><g style="mix-blend-mode:passthrough"><path d="M9.222345351562499,16.597559078125Q10.5910653515625,16.055694078125,12.0159353515625,15.808411078125Q12.0654353515625,15.799832078125,12.1149353515625,15.791610078125Q13.2631353515625,15.600830078125,14.4478353515625,15.600830078125Q17.155635351562502,15.600830078125,19.6733353515625,16.597559078125Q19.8444353515625,16.665280078125,20.0132353515625,16.737220078125Q20.0859353515625,16.768170078125,20.1582353515625,16.799900078125L20.1592353515625,16.798270078125Q20.3138353515625,16.865760078125,20.4717353515625,16.928270078125Q22.1502353515625,17.592760078125,23.9554353515625,17.592760078125Q25.2066353515625,17.592760078125,26.3970353515625,17.273520078125L28.5421353515625,21.563830078125Q27.4813353515625,21.927340078125,26.3873353515625,22.117200078125002Q25.1911353515625,22.324780078125002,23.9554353515625,22.324780078125002Q21.2476353515625,22.324780078125002,18.7299353515625,21.328050078125Q18.4256353515625,21.207570078125002,18.1282353515625,21.073770078125L18.1267353515625,21.077080078125Q18.0298353515625,21.036250078125,17.9315353515625,20.997330078125Q16.253035351562502,20.332850078125,14.4478353515625,20.332850078125Q12.6426353515625,20.332850078125,10.9641753515625,20.997330078125C9.1417253515625,21.718820078125,8.379625351562499,22.583330078125,7.8580153515625,23.148720078125Q7.3364053515625,23.714120078125,5.9892453515625,26.398830078125002L1.4537746732625,24.079880078125Q1.9242563515625,23.009960078125,2.5658053515625,22.028670078125Q3.3702353515625,20.798240078124998,4.4097153515625,19.758760078125Q5.4491953515625,18.719280078125,6.6796153515625,17.914850078125Q7.8842153515625,17.127320078125,9.222345351562499,16.597559078125Z" fill-rule="evenodd" fill="#0036A1" fill-opacity="1"/></g><g style="mix-blend-mode:passthrough"><path d="M1.89522,28.4444L4.25308,28.4444C4.70117,28.4444,5.1108,28.1913,5.31119,27.7905L14.6449,9.12308C14.8226,8.89236,15.0988,8.75423,15.3947,8.75423C15.6905,8.75423,15.9667,8.89236,16.1444,9.12308L17.9575,12.7493C19.342,14.544,21.5139,15.7,23.9558,15.7C24.4868,15.7,25.005,15.6453,25.5052,15.5413L18.7662,2.06344L18.7659,2.06344C18.1189,0.797012,16.8168,0,15.3947,0C13.9725,0,12.6704,0.797012,12.0235,2.06344L12.0231,2.06344L0.20224,25.7051C-0.427025,26.9637,0.488139,28.4444,1.89522,28.4444ZM24.5061,24.081Q24.0551,24.081,23.6095,24.0534L25.805,28.4444L28.894,28.4444C30.3011,28.4444,31.2163,26.9637,30.587,25.7051L29.3492,23.2295Q27.0088,24.081,24.5061,24.081Z" fill-rule="evenodd" fill="#2A72FF" fill-opacity="1"/></g></g></svg>