<?xml version="1.0" encoding="utf-8"?>
<!-- Generator: Adobe Illustrator 28.2.0, SVG Export Plug-In . SVG Version: 6.00 Build 0)  -->
<svg version="1.1" id="图层_1" xmlns="http://www.w3.org/2000/svg" xmlns:xlink="http://www.w3.org/1999/xlink" x="0px" y="0px"
	 viewBox="0 0 200 48.4" style="enable-background:new 0 0 200 48.4;" xml:space="preserve">
<style type="text/css">
	.st0{fill:#FFFFFF;}
</style>
<path id="XMLID_66_" class="st0" d="M157.8,39.5c-0.2,0.4-0.2,0.9-0.2,1.3c0.1,2.4,2.8,4.2,6,4.1c3.2-0.1,5.7-2.2,5.6-4.6
	c0-0.7-0.3-1.3-0.6-1.8c-2,1-4.3,1.5-6.7,1.5C160.4,40,159.1,39.8,157.8,39.5z"/>
<path id="XMLID_65_" class="st0" d="M186.3,19.4c-1.1-1.9-4.3-2.2-7.2-0.6c-0.8,0.4-1.5,1-2.1,1.6c0.3,1.2,0.5,2.5,0.5,3.9
	c0,0.8-0.1,1.5-0.2,2.3c1.5,0.6,3.6,0.3,5.6-0.7C185.9,24.1,187.4,21.3,186.3,19.4z"/>
<path id="XMLID_64_" class="st0" d="M165.7,8.9c0.2-0.4,0.2-0.9,0.2-1.3c-0.1-2.4-2.8-4.2-6-4.1s-5.7,2.2-5.6,4.6
	c0,0.7,0.3,1.3,0.6,1.8c2-1,4.3-1.5,6.7-1.5C163.1,8.4,164.5,8.6,165.7,8.9z"/>
<path id="XMLID_63_" class="st0" d="M146.2,21.9c-1.5-0.6-3.6-0.3-5.6,0.7c-2.9,1.6-4.4,4.4-3.4,6.4c1.1,1.9,4.3,2.2,7.2,0.6
	c0.8-0.4,1.5-1,2.1-1.6c-0.3-1.2-0.5-2.5-0.5-3.9C146,23.4,146.1,22.7,146.2,21.9z"/>
<path id="XMLID_62_" class="st0" d="M199.8,13.6c0.9,1.8-1,4.5-4.1,6s-6.3,1.2-7.2-0.6c-0.9-1.8,1-4.5,4.1-6
	C195.7,11.5,198.9,11.8,199.8,13.6z"/>
<path id="XMLID_61_" class="st0" d="M179.9,42.7c0.6,2.1-1.5,4.4-4.7,5.4c-3.2,0.9-6.2,0-6.8-2.1s1.5-4.4,4.7-5.4
	C176.3,39.7,179.3,40.6,179.9,42.7z"/>
<path id="XMLID_60_" class="st0" d="M195,23.1c1,1.7-0.6,4.5-3.5,6.2c-3,1.8-6.2,1.8-7.1,0.2c-1-1.7,0.6-4.5,3.5-6.2
	C190.8,21.5,194,21.4,195,23.1z"/>
<path id="XMLID_59_" class="st0" d="M186.8,32.7c1,2-0.6,4.8-3.6,6.4c-3,1.5-6.2,1.1-7.2-0.9s0.6-4.8,3.6-6.4
	C182.5,30.3,185.7,30.7,186.8,32.7z"/>
<path id="XMLID_58_" class="st0" d="M157.3,37.7c-1.4,1.2-4.2,0.3-6.3-2.1c-2.1-2.4-2.6-5.3-1.2-6.5c1.4-1.2,4.2-0.3,6.3,2.1
	C158.2,33.6,158.7,36.5,157.3,37.7z"/>
<path id="XMLID_57_" class="st0" d="M174.4,27.2c-1.5-2.2-4.8-2.6-7.5-0.8c-2.7,1.8-3.6,5-2.1,7.2s4.8,2.6,7.5,0.8
	C174.9,32.7,175.8,29.4,174.4,27.2z"/>
<path id="XMLID_56_" class="st0" d="M123.8,34.7c-0.9-1.8,1-4.5,4.1-6s6.3-1.2,7.2,0.6c0.9,1.8-1,4.5-4.1,6
	C127.8,36.8,124.6,36.6,123.8,34.7z"/>
<path id="XMLID_55_" class="st0" d="M143.7,5.7c-0.6-2.1,1.5-4.4,4.7-5.4c3.2-0.9,6.2,0,6.8,2.1c0.6,2-1.5,4.4-4.7,5.4
	C147.3,8.7,144.2,7.8,143.7,5.7z"/>
<path id="XMLID_54_" class="st0" d="M128.5,25.3c-1-1.7,0.6-4.5,3.6-6.2c3-1.8,6.2-1.8,7.1-0.2c1,1.7-0.6,4.5-3.5,6.2
	C132.7,26.9,129.5,27,128.5,25.3z"/>
<path id="XMLID_53_" class="st0" d="M136.8,15.7c-1-2,0.6-4.8,3.6-6.4c3-1.5,6.2-1.1,7.2,0.9S147,15,144,16.6
	C141.1,18.1,137.8,17.7,136.8,15.7z"/>
<path id="XMLID_52_" class="st0" d="M166.2,10.7c1.4-1.2,4.2-0.3,6.3,2.1s2.6,5.3,1.2,6.5c-1.4,1.2-4.2,0.3-6.3-2.1
	C165.4,14.8,164.8,11.9,166.2,10.7z"/>
<path id="XMLID_51_" class="st0" d="M149.2,21.2c1.5,2.2,4.8,2.6,7.5,0.8c2.7-1.8,3.6-5,2.1-7.2s-4.8-2.6-7.5-0.8
	C148.7,15.7,147.7,18.9,149.2,21.2z"/>
<g id="XMLID_41_">
	<path id="XMLID_50_" class="st0" d="M103.9,23l-1.5,1.8v-6h10.4v-2.7H87.2v2.7h10.1v21.1h5.1V25.8c5.2,2,7.9,5.7,7.9,5.7l2.9-4.2
		C113.2,27.3,109.1,23.4,103.9,23"/>
	<path id="XMLID_49_" class="st0" d="M75.8,26.9h11v-2.6H75.7c0-2.2,0.1-4.5,0.1-5.4h8.7v-2.7H62.3v2.7h9.2c0,2-0.1,3.8-0.3,5.4H60
		v2.6h10.6C68.2,33.7,60,35.8,60,35.8s1.6,0.7,3.1,3.8c0,0,7-2.4,10.2-8.8c0.1-0.1,0.1-0.3,0.2-0.4c3.4,7.1,11.1,8.8,11.4,8.9
		c1.7-2.7,3.3-3.7,3.3-3.7S79.2,34.1,75.8,26.9"/>
	<path id="XMLID_48_" class="st0" d="M37.4,39.9V21.5c2.2-3.5,2.3-6.3,2.3-6.3h-3.9h-0.4c-1.1,5.5-7.1,11-7.1,11s0.4,0.8,1,3.1
		c1.1-0.7,2.5-1.7,3.3-2.6v13.1L37.4,39.9L37.4,39.9z"/>
	<path id="XMLID_47_" class="st0" d="M39.9,21.1v2.7H49v12.6c0,1.2-1,1.1-1,1.1h-4c0.3,1.1,0.9,2.4,0.9,2.4h5.2c3.6,0,3.6-3,3.6-3
		V23.8h4.1v-2.7h-4.1v-5.8H49v5.8C49,21.1,39.9,21.1,39.9,21.1z"/>
	<path id="XMLID_46_" class="st0" d="M42.3,25.9l-1.9,1.6c3.3,2.3,3.5,6.3,3.5,6.3l3.4-2.2C47.3,31.5,46,27.6,42.3,25.9"/>
	<path id="XMLID_45_" class="st0" d="M8.2,21.9l1.3-2.3c-0.8-4.6-5.8-5.8-5.8-5.8l-2.2,3.7C1.4,17.6,6.3,18.4,8.2,21.9"/>
	<path id="XMLID_44_" class="st0" d="M7.4,28.5l1.1-2c-1.6-5.1-6.3-5.4-6.3-5.4L0,24.8C0,24.8,4.1,24.4,7.4,28.5"/>
	<path id="XMLID_43_" class="st0" d="M10.2,30.9l-2-1.7c0,0-1.8,5-7.9,8l4,2.7C9.7,36.3,10.2,30.9,10.2,30.9"/>
	<path id="XMLID_42_" class="st0" d="M11.5,15.5c0,0,0,20,0,20.3c0,3.9,4.1,3.8,4.1,3.8h12.1V37H17.5c-1.2,0-1.1-1-1.1-1V18.3h11.3
		v-2.8C27.7,15.5,11.5,15.5,11.5,15.5z"/>
</g>
</svg>
