<?xml version="1.0" encoding="UTF-8"?>
<svg width="240px" height="63px" viewBox="0 0 240 63" version="1.1" xmlns="http://www.w3.org/2000/svg" xmlns:xlink="http://www.w3.org/1999/xlink">
    <title>logo</title>
    <g id="页面-1" stroke="none" stroke-width="1" fill="none" fill-rule="evenodd">
        <g id="官网-H5-导航02" transform="translate(-60.000000, -29.000000)" fill="#103675">
            <g id="logo" transform="translate(60.000000, 29.000000)">
                <path d="M234.587648,43.4749641 L234.587648,46.5704614 L239.81151,46.5704614 L239.81151,48.3768227 L234.587648,48.3768227 L234.587648,51.2535371 L237.575437,51.2535371 C238.788279,51.2535371 239.30887,51.9076418 238.975647,53.0004343 C238.306957,55.0435298 236.949381,56.9284285 235.130678,58.5171289 C236.656549,59.5482133 238.306957,60.3212462 240,60.8373494 L238.912817,62.7233701 C236.990894,62.0883387 235.089166,61.1548651 233.355732,59.9049977 C231.516834,61.1548651 229.386225,62.1679981 227.212982,62.8624936 L226.148238,61.0157416 C228.111675,60.4412963 229.992085,59.5672867 231.621177,58.4958116 C230.326431,57.3065302 229.134905,55.8771487 228.13187,54.2301063 L230.305113,53.655661 C231.140976,54.9840658 232.185524,56.1744691 233.355732,57.1864802 C234.733503,55.9960769 235.842003,54.607086 236.572401,53.0789717 L227.547327,53.0789717 L228.047723,51.2535371 L232.268549,51.2535371 L232.268549,48.3768227 L227.234299,48.3768227 L227.818842,46.5704614 L232.268549,46.5704614 L232.268549,43.4749641 L234.587648,43.4749641 Z M224.579734,43.5153548 L224.579734,47.3446162 L226.795611,47.3446162 L226.795611,49.1509775 L224.579734,49.1509775 L224.579734,53.7341984 L226.774294,53.1978999 L227.046931,54.9638704 L224.579734,55.5596331 L224.579734,61.4319901 C224.579734,62.326195 223.849335,62.9208357 222.803665,62.8422982 L219.963976,62.6235153 L219.963976,60.8777401 L221.844386,60.9966682 C222.156292,61.0157416 222.261757,60.8979354 222.261757,60.6398838 L222.261757,56.1363223 L219.942658,56.6905723 L219.691338,54.884211 L222.261757,54.270497 L222.261757,49.1509775 L219.649826,49.1509775 L220.068318,47.3446162 L222.261757,47.3446162 L222.261757,43.5153548 L224.579734,43.5153548 Z M198.030487,43.693186 L198.218976,45.3996925 C197.486334,45.4793519 196.610081,45.5578893 195.711388,45.6184754 L195.711388,49.1694899 L198.636347,49.1694899 L198.636347,50.9758511 L195.711388,50.9758511 L195.711388,52.9011405 L196.838961,52.2863045 L198.845032,56.4925457 L197.007256,57.5045568 L195.711,54.548 L195.711388,62.8215419 L193.392289,62.8215419 L193.392289,54.9846268 C192.953602,56.9884536 192.367937,59.0921352 191.553391,61.1946948 L190.111668,59.2907227 C191.157338,56.6507426 191.846224,54.2306673 192.514914,50.9758511 L190.153181,50.9758511 L190.53016,49.1694899 L193.392289,49.1694899 L193.392289,45.7575988 C192.473401,45.7968676 191.574709,45.8170629 190.843188,45.8361363 L190.654698,44.1296298 C192.744916,44.0712877 195.940269,43.9310423 198.030487,43.693186 Z M207.995766,43.4957204 L207.995766,55.837319 L210.210522,55.5590721 L210.439403,57.345238 L207.995766,57.6436803 L207.995766,62.8215419 L205.697985,62.8215419 L205.697985,57.9410006 L199.262402,58.7140335 L199.033522,56.9278676 L205.697985,56.115566 L205.697985,43.4957204 L207.995766,43.4957204 Z M149.243811,44.1499373 C149.828354,44.1499373 150.328749,44.6065765 150.328749,45.1619484 L150.328749,60.9962195 C150.328749,62.2068181 149.765524,62.8429714 148.365313,62.76219 L143.832581,62.5243338 L143.789946,60.8178273 L147.30057,61.0354882 C147.863795,61.0758789 148.010773,60.9569507 148.010773,60.4621648 L148.010773,46.4712798 C148.010773,46.1930329 147.8436,45.9361032 147.550768,45.9361032 L134.786189,45.9361032 C134.514674,45.9361032 134.326184,46.1930329 134.326184,46.4712798 L134.326184,62.702726 L132.028403,62.702726 L132.028403,45.1619484 C132.028403,44.6065765 132.508603,44.1499373 133.114463,44.1499373 L149.243811,44.1499373 Z M168.524193,47.6814297 L168.524193,60.1038097 C168.524193,60.5795222 168.648731,60.7781097 169.150248,60.7781097 L173.224098,60.7781097 C174.142986,60.7781097 174.394306,60.5211801 174.518844,59.5877065 L174.874506,56.988117 L177.109457,57.5636843 L176.441889,61.0361614 C176.233204,62.1076365 175.480366,62.583349 174.394306,62.583349 L168.251555,62.583349 C166.851345,62.583349 166.203972,61.7901208 166.203972,60.6199129 L166.203972,47.6814297 L168.524193,47.6814297 Z M139.297604,47.1657753 L141.262162,47.7817332 L141.15782,48.1385176 L142.976522,47.3643628 C143.497114,48.5749614 143.978436,49.726096 144.437319,50.8963039 C144.897324,49.7059006 145.315816,48.495302 145.754504,47.26563 L147.739258,47.9197347 C147.029055,49.9437569 146.31773,51.8892416 145.566014,53.8134091 C146.213387,55.5401109 146.819247,57.3262768 147.467742,59.1921021 L145.545819,59.8652802 L144.395806,56.6508548 C143.894289,57.8221847 143.35238,59.012588 142.808228,60.24226 L140.907622,59.4299584 C140.907622,59.4086411 140.927817,59.3884457 140.927817,59.3704943 L139.297604,59.9247443 C138.881356,58.7141457 138.441546,57.5641331 138.025297,56.4118765 L136.393963,60.1244538 L134.493356,59.3301036 C135.36961,57.3453502 136.185277,55.4795249 136.938115,53.6148215 C136.206595,51.7893869 135.453757,49.9841476 134.639212,48.0981269 L136.54094,47.3250941 L138.025297,50.8166445 C138.462863,49.6464366 138.881356,48.4358379 139.297604,47.1657753 Z M162.965985,49.5068643 L165.116789,50.0622363 L162.840325,58.9919438 L160.751229,58.4174985 L162.965985,49.5068643 Z M141.115185,48.2574457 C140.489129,50.1221491 139.841756,51.8892416 139.151749,53.6350169 C139.821561,55.3617187 140.489129,57.1276893 141.137624,58.9531239 C141.930852,57.1871533 142.642177,55.4795249 143.331063,53.753945 C142.642177,51.9487057 141.930852,50.1423444 141.115185,48.2574457 Z M178.3223,49.8445753 L180.704228,57.8217359 L178.656645,58.5162313 L176.274717,50.4796067 L178.3223,49.8445753 Z M200.808468,50.0838901 L204.130602,53.9131516 L202.417364,55.2819471 L199.116547,51.4324903 L200.808468,50.0838901 Z M170.257626,43.5941166 L174.477331,49.1108112 L172.681067,50.3808739 L168.524193,44.6655918 L170.257626,43.5941166 Z M201.707161,44.6659284 L204.88344,48.4761164 L203.170201,49.8639853 L199.993923,45.9752598 L201.707161,44.6659284 Z M229.800791,6.37028442 C231.431004,6.37028442 233.005118,6.47799292 234.480501,6.69004402 C235.964858,6.90321709 237.206872,7.17024441 238.169517,7.48439419 L238.865134,7.70990885 L238.865134,14.2038337 L237.578242,13.8324637 C236.397936,13.4925088 235.191825,13.2310913 233.990202,13.0538211 C232.790823,12.8776728 231.564517,12.7879157 230.344943,12.7879157 C228.737169,12.7879157 227.216909,13.0055766 225.821186,13.4341667 C224.460244,13.853781 223.267597,14.4787147 222.279147,15.2910163 C221.304161,16.0920982 220.525518,17.0962556 219.962293,18.2743173 C219.400189,19.450135 219.116332,20.8413698 219.116332,22.4109967 C219.130918,25.4885426 219.974634,27.7133963 221.69797,29.2078517 C223.437014,30.7157706 225.988359,31.4809498 229.281322,31.4809498 C229.910743,31.4809498 230.57158,31.4495348 231.247002,31.3889488 C231.583591,31.3586557 231.899984,31.3238749 232.195061,31.2857281 L232.195061,26.5016757 L225.108739,26.5016757 L226.962223,20.126679 L239.999439,20.126679 L239.999439,36.2145138 L239.307188,36.4433944 C238.803426,36.6105669 238.18298,36.7777395 237.412191,36.9572537 C236.654866,37.1334019 235.801052,37.2915988 234.875432,37.4296003 C233.950934,37.5664798 232.988289,37.6797982 232.016669,37.7661893 C231.030463,37.8525805 230.038647,37.8974591 229.06927,37.8974591 C226.142068,37.8974591 223.536868,37.5339429 221.328844,36.8170082 C219.087161,36.0899759 217.186555,35.0454278 215.679758,33.7114132 C214.159497,32.365057 213.004997,30.7404538 212.248794,28.8813603 C211.502688,27.04695 211.123464,24.9982446 211.123464,22.7935863 C211.123464,21.235179 211.323174,19.7250161 211.714739,18.3046103 C212.108548,16.8774727 212.696457,15.5356043 213.462758,14.31603 C214.226815,13.1009435 215.164777,11.9879557 216.251959,11.0096035 C217.339142,10.0312514 218.595741,9.18529087 219.986976,8.49528331 C221.368113,7.81088557 222.900715,7.27907487 224.539904,6.91555869 C226.172361,6.55428644 227.942819,6.37028442 229.800791,6.37028442 Z M130.153489,0.000448785404 L130.153489,6.37320153 L119.094295,6.37320153 L119.094295,37.8510098 L114.971079,37.8510098 C112.899934,37.8510098 111.221477,36.1725524 111.221477,34.1025297 L111.221477,34.1025297 L111.221477,6.37320153 L100.162283,6.37320153 L100.162283,0.000448785404 L130.153489,0.000448785404 Z M17.2849698,7.10542736e-15 C19.9889019,7.10542736e-15 22.4426361,0.467858784 24.5766107,1.39011279 C26.720683,2.31461072 28.5573372,3.63628374 30.0383291,5.31474115 C31.517077,6.99095464 32.654748,9.01385485 33.422171,11.3284656 C34.1839843,13.6251249 34.5699397,16.1809578 34.5699397,18.9252805 C34.5699397,21.6696033 34.1839843,24.2254361 33.422171,26.5232174 C32.654748,28.8378281 31.515955,30.8618503 30.0383291,32.5369418 C28.5595812,34.2142773 26.7218049,35.5348283 24.5766107,36.4615702 C22.4437581,37.3838242 19.9900239,37.850561 17.2849698,37.850561 C14.5799158,37.850561 12.1261816,37.3838242 9.99332899,36.4615702 C7.8470128,35.5348283 6.01035853,34.2142773 4.53161062,32.5369418 C3.05398468,30.8629723 1.91519171,28.8389501 1.14776867,26.5232174 C0.385955448,24.2254361 -3.19744231e-14,21.6696033 -3.19744231e-14,18.9252805 C-3.19744231e-14,16.1809578 0.385955448,13.6251249 1.14776867,11.3284656 C1.91519171,9.01385485 3.05286271,6.98983267 4.53161062,5.31474115 C6.01148049,3.63628374 7.84925672,2.31573269 9.99332899,1.39011279 C12.1273036,0.467858784 14.5810378,7.10542736e-15 17.2849698,7.10542736e-15 Z M96.4195246,6.37297713 L96.4195246,12.7468518 L79.9244171,12.7468518 L79.9244171,18.6809168 L92.6710445,18.6809168 L92.6710445,25.0536696 L79.9244171,25.0536696 L79.9244171,30.9866126 L96.4195246,30.9866126 L96.4195246,37.3593654 L75.8012012,37.3593654 C73.7300565,37.3593654 72.0515991,35.6820299 72.0515991,33.6108853 L72.0515991,33.6108853 L72.0515991,6.37297713 L96.4195246,6.37297713 Z M46.1912377,6.37342592 L60.4300767,25.3402191 L60.4300767,6.37342592 L68.3028946,6.37342592 L68.3028946,37.3598142 L60.4300767,37.3598142 L46.1912377,18.4042406 L46.1912377,37.3598142 L42.0680218,37.3598142 C40.0058529,37.3598142 38.3184198,35.673503 38.3184198,33.6113341 L38.3184198,33.6113341 L38.3184198,6.37342592 L46.1912377,6.37342592 Z M185.263776,6.37342592 L199.501493,25.3402191 L199.501493,6.37342592 L207.374311,6.37342592 L207.374311,37.3598142 L199.501493,37.3598142 L185.263776,18.4042406 L185.263776,37.3598142 L181.139438,37.3598142 C179.068293,37.3598142 177.389836,35.6824787 177.389836,33.6113341 L177.389836,33.6113341 L177.389836,6.37342592 L185.263776,6.37342592 Z M139.900772,6.37342592 L139.900772,18.6802437 L154.146342,18.6802437 L154.146342,6.37342592 L162.020282,6.37342592 L162.020282,37.3598142 L154.146342,37.3598142 L154.146342,25.0529964 L139.900772,25.0529964 L139.900772,37.3598142 L135.777556,37.3598142 C133.706411,37.3598142 132.027954,35.6824787 132.027954,33.6113341 L132.027954,33.6113341 L132.027954,6.37342592 L139.900772,6.37342592 Z M173.64158,6.37353812 L173.64158,37.3599264 L168.122642,37.3599264 C166.822286,37.3599264 165.76764,36.3064026 165.76764,35.0060469 L165.76764,6.37353812 L173.64158,6.37353812 Z M17.2849698,6.97749107 C15.9083206,6.97749107 14.6292822,7.22320108 13.4837575,7.70901128 C12.3573061,8.18472381 11.3711002,8.91736598 10.5531888,9.88562049 C9.72630168,10.8650946 9.0677091,12.11384 8.59424049,13.5993197 C8.11516207,15.1049947 7.87169599,16.8967705 7.87169599,18.9252805 C7.87169599,20.9549125 8.11516207,22.7466882 8.59424049,24.2523633 C9.0677091,25.736721 9.72630168,26.9809785 10.5509449,27.950355 C11.3699782,28.9118777 12.3573061,29.6456418 13.4871234,30.131452 C14.6326481,30.623994 15.9094426,30.8741919 17.2849698,30.8741919 C18.6593752,30.8741919 19.9372916,30.623994 21.0828163,30.131452 C22.2115116,29.6456418 23.1988395,28.9118777 24.0189948,27.950355 C24.843638,26.9809785 25.5022306,25.735599 25.9756992,24.2523633 C26.4547776,22.7466882 26.6982437,20.9549125 26.6982437,18.9252805 C26.6982437,16.8967705 26.4547776,15.1049947 25.9756992,13.5993197 C25.5022306,12.11384 24.843638,10.8650946 24.0167509,9.88562049 C23.1988395,8.91736598 22.2126336,8.18472381 21.0861822,7.70901128 C19.9406575,7.22320108 18.6616191,6.97749107 17.2849698,6.97749107 Z" id="形状结合"></path>
            </g>
        </g>
    </g>
</svg>