<svg xmlns="http://www.w3.org/2000/svg" xmlns:xlink="http://www.w3.org/1999/xlink" fill="none" version="1.1" width="224.99998474121094" height="50" viewBox="0 0 224.99998474121094 50"><g style="mix-blend-mode:passthrough"><path d="M21.2505,0L29.0705,31.3649L43.9035,0L58.7942,0L53.1262,50L40.349,50L43.9035,23.6673L32.6058,46.6452L21.2505,46.6452L15.5632,24.5634L12.758,50L0,50L5.66807,3.35478L2.80521,0L21.2505,0ZM109.961,0Q110.979,0,111.863,0.436581Q112.766,0.873162,113.381,1.67739Q114.015,2.45864,114.226,3.5386Q114.457,4.59559,114.168,5.92831L109.211,50L69.5155,50Q68.4972,50,67.5942,49.5634Q66.7103,49.1039,66.0763,48.3226Q65.4614,47.5184,65.2309,46.4154Q65.0195,45.3125,65.3077,44.0717L70.2649,0L109.961,0ZM83.0228,8.50184L79.4875,41.4982L95.7808,41.4982L99.9886,8.50184L83.0228,8.50184ZM169.177,0L166.372,24.954Q166.372,26.1719,165.892,27.2978Q165.412,28.4007,164.605,29.205Q163.798,29.9862,162.799,30.4458Q161.799,30.8823,160.685,30.8823L151.462,30.8823L166.372,50L150.809,50L136.629,30.8823L134.497,50L120.336,50L125.274,3.35478L123.141,0L169.177,0ZM138.781,8.50184L137.302,22.3805L152.942,22.3805L154.344,8.50184L138.781,8.50184ZM220.632,0Q221.65,0,222.534,0.436581Q223.437,0.873162,224.052,1.67739Q224.686,2.45864,224.898,3.5386Q225.128,4.59559,224.84,5.92831L219.883,50L180.187,50Q179.169,50,178.266,49.5634Q177.382,49.1039,176.748,48.3226Q176.133,47.5184,175.902,46.4154Q175.691,45.3125,175.979,44.0717L180.936,0L220.632,0ZM193.694,8.50184L190.159,41.4982L206.452,41.4982L210.66,8.50184L193.694,8.50184Z" fill="#FFFFFF" fill-opacity="1"/></g></svg>