<svg xmlns="http://www.w3.org/2000/svg" xmlns:xlink="http://www.w3.org/1999/xlink" fill="none" version="1.1" width="30.789306640625" height="28.4443359375" viewBox="0 0 30.789306640625 28.4443359375"><g style="mix-blend-mode:passthrough"><g style="mix-blend-mode:passthrough"><path d="M9.222345351562499,16.597559078125Q10.5910653515625,16.055694078125,12.0159353515625,15.808411078125Q12.0654353515625,15.799832078125,12.1149353515625,15.791610078125Q13.2631353515625,15.600830078125,14.4478353515625,15.600830078125Q17.155635351562502,15.600830078125,19.6733353515625,16.597559078125Q19.8444353515625,16.665280078125,20.0132353515625,16.737220078125Q20.0859353515625,16.768170078125,20.1582353515625,16.799900078125L20.1592353515625,16.798270078125Q20.3138353515625,16.865760078125,20.4717353515625,16.928270078125Q22.1502353515625,17.592760078125,23.9554353515625,17.592760078125Q25.2066353515625,17.592760078125,26.3970353515625,17.273520078125L28.5421353515625,21.563830078125Q27.4813353515625,21.927340078125,26.3873353515625,22.117200078125002Q25.1911353515625,22.324780078125002,23.9554353515625,22.324780078125002Q21.2476353515625,22.324780078125002,18.7299353515625,21.328050078125Q18.4256353515625,21.207570078125002,18.1282353515625,21.073770078125L18.1267353515625,21.077080078125Q18.0298353515625,21.036250078125,17.9315353515625,20.997330078125Q16.253035351562502,20.332850078125,14.4478353515625,20.332850078125Q12.6426353515625,20.332850078125,10.9641753515625,20.997330078125C9.1417253515625,21.718820078125,8.379625351562499,22.583330078125,7.8580153515625,23.148720078125Q7.3364053515625,23.714120078125,5.9892453515625,26.398830078125002L1.4537746732625,24.079880078125Q1.9242563515625,23.009960078125,2.5658053515625,22.028670078125Q3.3702353515625,20.798240078124998,4.4097153515625,19.758760078125Q5.4491953515625,18.719280078125,6.6796153515625,17.914850078125Q7.8842153515625,17.127320078125,9.222345351562499,16.597559078125Z" fill-rule="evenodd" fill="#0036A1" fill-opacity="1"/></g><g style="mix-blend-mode:passthrough"><path d="M1.89522,28.4444L4.25308,28.4444C4.70117,28.4444,5.1108,28.1913,5.31119,27.7905L14.6449,9.12308C14.8226,8.89236,15.0988,8.75423,15.3947,8.75423C15.6905,8.75423,15.9667,8.89236,16.1444,9.12308L17.9575,12.7493C19.342,14.544,21.5139,15.7,23.9558,15.7C24.4868,15.7,25.005,15.6453,25.5052,15.5413L18.7662,2.06344L18.7659,2.06344C18.1189,0.797012,16.8168,0,15.3947,0C13.9725,0,12.6704,0.797012,12.0235,2.06344L12.0231,2.06344L0.20224,25.7051C-0.427025,26.9637,0.488139,28.4444,1.89522,28.4444ZM24.5061,24.081Q24.0551,24.081,23.6095,24.0534L25.805,28.4444L28.894,28.4444C30.3011,28.4444,31.2163,26.9637,30.587,25.7051L29.3492,23.2295Q27.0088,24.081,24.5061,24.081Z" fill-rule="evenodd" fill="#2A72FF" fill-opacity="1"/></g></g></svg>