<svg xmlns="http://www.w3.org/2000/svg" xmlns:xlink="http://www.w3.org/1999/xlink" fill="none" version="1.1" width="271" height="73.9073486328125" viewBox="0 0 271 73.9073486328125"><g style="mix-blend-mode:passthrough"><g style="mix-blend-mode:passthrough"><path d="M108.0004,32.3505859375L114.2564,57.442485937499995L126.1228,32.3505859375L138.0354,32.3505859375L133.5009,72.3505859375L123.2792,72.3505859375L126.1228,51.284385937500005L117.0847,69.66678593750001L108.0004,69.66678593750001L103.4505,52.0012859375L101.2064,72.3505859375L91,72.3505859375L95.53446,35.0344059375L93.24417,32.3505859375L108.0004,32.3505859375ZM178.9685,32.3505859375Q179.7831,32.3505859375,180.49020000000002,32.6998509375Q181.2126,33.0491149375,181.7045,33.6924959375Q182.21179999999998,34.3174959375,182.3808,35.1814659375Q182.56529999999998,36.0270559375,182.3347,37.0932359375L178.369,72.3505859375L146.6124,72.3505859375Q145.7978,72.3505859375,145.0753,72.0012859375Q144.3683,71.63368593749999,143.861,71.00868593749999Q143.3691,70.3652859375,143.1847,69.48298593749999Q143.0156,68.6005859375,143.2462,67.60798593749999L147.2119,32.3505859375L178.9685,32.3505859375ZM157.4183,39.1520559375L154.59,65.5490859375L167.6246,65.5490859375L170.9909,39.1520559375L157.4183,39.1520559375ZM226.342,32.3505859375L224.098,52.3137859375Q224.098,53.2880859375,223.714,54.1887859375Q223.329,55.071185937500005,222.684,55.714585937500004Q222.038,56.339585937500004,221.239,56.7071859375Q220.44,57.0564859375,219.548,57.0564859375L212.17000000000002,57.0564859375L224.098,72.3505859375L211.647,72.3505859375L200.303,57.0564859375L198.59699999999998,72.3505859375L187.2688,72.3505859375L191.219,35.0344059375L189.513,32.3505859375L226.342,32.3505859375ZM202.025,39.1520559375L200.841,50.254985937499995L213.353,50.254985937499995L214.476,39.1520559375L202.025,39.1520559375ZM267.506,32.3505859375Q268.32,32.3505859375,269.027,32.6998509375Q269.75,33.0491149375,270.24199999999996,33.6924959375Q270.749,34.3174959375,270.918,35.1814659375Q271.102,36.0270559375,270.872,37.0932359375L266.906,72.3505859375L235.15,72.3505859375Q234.335,72.3505859375,233.613,72.0012859375Q232.905,71.63368593749999,232.398,71.00868593749999Q231.906,70.3652859375,231.722,69.48298593749999Q231.553,68.6005859375,231.783,67.60798593749999L235.749,32.3505859375L267.506,32.3505859375ZM245.955,39.1520559375L243.127,65.5490859375L256.16200000000003,65.5490859375L259.528,39.1520559375L245.955,39.1520559375Z" fill="#FFFFFF" fill-opacity="1"/></g><g style="mix-blend-mode:passthrough"><g style="mix-blend-mode:passthrough"><path d="M23.9635203125,43.1259428125Q27.5199203125,41.7180128125,31.2222203125,41.0754908125Q31.3507203125,41.0532008125,31.4793203125,41.0318378125Q34.4628203125,40.5361328125,37.5410203125,40.5361328125Q44.5767203125,40.5361328125,51.1184203125,43.1259428125Q51.5629203125,43.3019028125,52.0017203125,43.4888128125Q52.1905203125,43.5692428125,52.3782203125,43.6516828125L52.3809203125,43.6474328125Q52.7827203125,43.8228128125,53.1930203125,43.9852328125Q57.5541203125,45.7117728125,62.2446203125,45.7117728125Q65.4957203125,45.7117728125,68.5886203125,44.8822828125L74.1624203125,56.029832812500004Q71.4059203125,56.974332812499995,68.5633203125,57.4676328125Q65.4554203125,58.0070328125,62.2446203125,58.0070328125Q55.2089203125,58.0070328125,48.6672203125,55.4172328125Q47.8765203125,55.1041328125,47.1037203125,54.7565328125L47.1000203125,54.7651328125Q46.8480203125,54.6590328125,46.5926203125,54.5579328125Q42.2314203125,52.8313328125,37.5410203125,52.8313328125Q32.850520312499995,52.8313328125,28.4893203125,54.5579328125C23.7541203125,56.4325328125,21.7739203125,58.678832812500005,20.4186203125,60.1478328125Q19.0633203125,61.616932812499996,15.5629203125,68.5927328125L3.7784224825,62.5673328125Q5.0008803125,59.7873328125,6.6678203125,57.237632812499996Q8.7579603125,54.0406328125,11.458850312500001,51.3397328125Q14.1597203125,48.6388128125,17.356720312500002,46.5486628125Q20.4866203125,44.5024028125,23.9635203125,43.1259428125Z" fill-rule="evenodd" fill="#FFFFFF" fill-opacity="1"/></g><g style="mix-blend-mode:passthrough"><path d="M4.924440613812315,73.9074L11.050880613812316,73.9074C12.215180613812315,73.9074,13.279480613812316,73.2496,13.800180613812316,72.2082L38.05198061381232,23.7045C38.51368061381231,23.1051,39.23138061381231,22.7462,40.000080613812315,22.7462C40.768880613812314,22.7462,41.486580613812315,23.1051,41.94818061381231,23.7045L46.65918061381232,33.1266C50.256480613812315,37.7896,55.89978061381232,40.7934,62.244680613812314,40.7934C63.62438061381231,40.7934,64.97078061381231,40.6514,66.27028061381232,40.3812L48.76048061381231,5.36145L48.759480613812315,5.36145C47.07858061381231,2.07088,43.69518061381231,0,40.000080613812315,0C36.30498061381232,0,32.92168061381231,2.07088,31.240680613812316,5.36145L31.239780613812314,5.36145L0.5255626138123153,66.7898C-1.1094593861876847,70.0599,1.2684206138123153,73.9074,4.924440613812315,73.9074ZM63.674280613812314,62.5699Q62.502680613812316,62.5699,61.34478061381232,62.498L67.04938061381232,73.9073L75.07558061381232,73.9073C78.73158061381231,73.9073,81.10948061381231,70.0598,79.47438061381231,66.7898L76.25828061381232,60.3574Q70.17728061381231,62.5699,63.674280613812314,62.5699Z" fill-rule="evenodd" fill="#2A72FF" fill-opacity="1"/></g></g></g></svg>