<svg xmlns="http://www.w3.org/2000/svg" xmlns:xlink="http://www.w3.org/1999/xlink" fill="none" version="1.1" width="80" height="80" viewBox="0 0 80 80"><defs><clipPath id="master_svg0_196_06992"><rect x="0" y="0" width="80" height="80" rx="0"/></clipPath></defs><g style="mix-blend-mode:passthrough" clip-path="url(#master_svg0_196_06992)"><g style="mix-blend-mode:passthrough"><g style="mix-blend-mode:passthrough"><path d="M27.4539166015625,45.01074416015625Q30.3411166015625,43.86774416015625,33.3467166015625,43.34613016015625Q33.4510166015625,43.32803416015625,33.5554166015625,43.31069116015625Q35.9775166015625,42.90826416015625,38.476416601562505,42.90826416015625Q44.1882166015625,42.90826416015625,49.4990166015625,45.01074416015625Q49.8598166015625,45.15359416015625,50.2160166015625,45.30533416015625Q50.3693166015625,45.37062416015625,50.5217166015625,45.43755416015625L50.5239166015625,45.43410416015625Q50.8501166015625,45.57648416015625,51.1832166015625,45.70834416015625Q54.7237166015625,47.10999416015625,58.5315166015625,47.10999416015625Q61.1709166015625,47.10999416015625,63.6818166015625,46.43659416015625L68.2067166015625,55.48646416015625Q65.9689166015625,56.25326416015625,63.6612166015625,56.65376416015625Q61.1381166015625,57.09156416015625,58.5315166015625,57.09156416015625Q52.8197166015625,57.09156416015625,47.5090166015625,54.98916416015625Q46.8671166015625,54.73496416015625,46.2397166015625,54.45276416015625L46.2367166015625,54.459764160156254Q46.0321166015625,54.37356416015625,45.8248166015625,54.29156416015625Q42.2843166015625,52.88986416015625,38.476416601562505,52.88986416015625Q34.668616601562505,52.88986416015625,31.1281166015625,54.29156416015625C27.2839166015625,55.81336416015625,25.676316601562498,57.63696416015625,24.5760166015625,58.82956416015625Q23.4758166015625,60.022264160156254,20.6340966015625,65.68536416015625L11.0670995456625,60.79376416015625Q12.0595206015625,58.53686416015625,13.4127866015625,56.46696416015625Q15.1096266015625,53.871564160156254,17.3022766015625,51.67889416015625Q19.4949366015625,49.48623416015625,22.0903166015625,47.78940416015625Q24.6313166015625,46.12819416015625,27.4539166015625,45.01074416015625Z" fill-rule="evenodd" fill="#0036A1" fill-opacity="1"/></g><g style="mix-blend-mode:passthrough"><path d="M11.99773,70L16.971339999999998,70C17.91652,70,18.7806,69.46600000000001,19.2033,68.6206L38.8916,29.244C39.266400000000004,28.7573,39.849000000000004,28.466,40.4731,28.466C41.0972,28.466,41.6798,28.7573,42.0546,29.244L45.8792,36.893100000000004C48.7995,40.6787,53.3809,43.1172,58.5319,43.1172C59.6519,43.1172,60.745,43.0019,61.8,42.7825L47.585,14.35257L47.5842,14.35257C46.2196,11.6812,43.4729,10,40.4731,10C37.473299999999995,10,34.726600000000005,11.6812,33.361999999999995,14.35257L33.3612,14.35257L8.4266,64.2218C7.099245,66.8765,9.02967,70,11.99773,70ZM59.6925,60.7959Q58.7413,60.7959,57.8013,60.7376L62.4324,70L68.9483,70C71.91640000000001,70,73.8468,66.8765,72.5194,64.2218L69.9084,58.9998Q64.9717,60.7959,59.6925,60.7959Z" fill-rule="evenodd" fill="#2A72FF" fill-opacity="1"/></g></g></g></svg>