<svg xmlns="http://www.w3.org/2000/svg" xmlns:xlink="http://www.w3.org/1999/xlink" fill="none" version="1.1" width="312.9996337890625" height="73.9073486328125" viewBox="0 0 312.9996337890625 73.9073486328125"><g style="mix-blend-mode:passthrough"><g style="mix-blend-mode:passthrough"><path d="M109.2501337890625,23L117.0701337890625,54.3649L131.9031337890625,23L146.7938337890625,23L141.12583378906248,73L128.3486337890625,73L131.9031337890625,46.6673L120.6054337890625,69.6452L109.2501337890625,69.6452L103.5628337890625,47.5634L100.7576337890625,73L87.9996337890625,73L93.6677037890625,26.354779999999998L90.8048437890625,23L109.2501337890625,23ZM197.9606337890625,23Q198.97863378906248,23,199.8626337890625,23.436581Q200.76563378906252,23.873162,201.3806337890625,24.67739Q202.0146337890625,25.45864,202.2256337890625,26.5386Q202.4566337890625,27.59559,202.1676337890625,28.92831L197.2106337890625,73L157.5151337890625,73Q156.49683378906252,73,155.5938337890625,72.5634Q154.70993378906252,72.10390000000001,154.0759337890625,71.3226Q153.4610337890625,70.5184,153.23053378906252,69.4154Q153.0191337890625,68.3125,153.3073337890625,67.07169999999999L158.2645337890625,23L197.9606337890625,23ZM171.02243378906252,31.50184L167.4871337890625,64.4982L183.7804337890625,64.4982L187.98823378906252,31.50184L171.02243378906252,31.50184ZM257.1766337890625,23L254.3716337890625,47.954Q254.3716337890625,49.1719,253.8916337890625,50.297799999999995Q253.4116337890625,51.4007,252.6046337890625,52.205Q251.7976337890625,52.9862,250.7986337890625,53.4458Q249.7986337890625,53.8823,248.6846337890625,53.8823L239.4616337890625,53.8823L254.3716337890625,73L238.8086337890625,73L224.6286337890625,53.8823L222.4966337890625,73L208.3356337890625,73L213.2736337890625,26.354779999999998L211.14063378906252,23L257.1766337890625,23ZM226.7806337890625,31.50184L225.3016337890625,45.3805L240.9416337890625,45.3805L242.3436337890625,31.50184L226.7806337890625,31.50184ZM308.6316337890625,23Q309.6496337890625,23,310.5336337890625,23.436581Q311.4366337890625,23.873162,312.0516337890625,24.67739Q312.68563378906254,25.45864,312.8976337890625,26.5386Q313.1276337890625,27.59559,312.83963378906253,28.92831L307.88263378906254,73L268.1866337890625,73Q267.1686337890625,73,266.26563378906246,72.5634Q265.3816337890625,72.10390000000001,264.7476337890625,71.3226Q264.13263378906254,70.5184,263.9016337890625,69.4154Q263.69063378906253,68.3125,263.97863378906254,67.07169999999999L268.93563378906254,23L308.6316337890625,23ZM281.69363378906246,31.50184L278.1586337890625,64.4982L294.4516337890625,64.4982L298.65963378906247,31.50184L281.69363378906246,31.50184Z" fill="#0036A1" fill-opacity="1"/></g><g style="mix-blend-mode:passthrough"><path d="M23.9631541015625,43.1259428125Q27.5195541015625,41.7180128125,31.2218541015625,41.0754908125Q31.3503541015625,41.0532008125,31.4789541015625,41.0318378125Q34.4624541015625,40.5361328125,37.5406541015625,40.5361328125Q44.5763541015625,40.5361328125,51.1180541015625,43.1259428125Q51.5625541015625,43.3019028125,52.0013541015625,43.4888128125Q52.1901541015625,43.5692428125,52.3778541015625,43.6516828125L52.3805541015625,43.6474328125Q52.7823541015625,43.8228128125,53.1926541015625,43.9852328125Q57.5537541015625,45.7117728125,62.2442541015625,45.7117728125Q65.4953541015625,45.7117728125,68.5882541015625,44.8822828125L74.1620541015625,56.029832812500004Q71.4055541015625,56.974332812499995,68.5629541015625,57.4676328125Q65.4550541015625,58.0070328125,62.2442541015625,58.0070328125Q55.2085541015625,58.0070328125,48.6668541015625,55.4172328125Q47.8761541015625,55.1041328125,47.1033541015625,54.7565328125L47.0996541015625,54.7651328125Q46.8476541015625,54.6590328125,46.5922541015625,54.5579328125Q42.2310541015625,52.8313328125,37.5406541015625,52.8313328125Q32.850154101562495,52.8313328125,28.4889541015625,54.5579328125C23.7537541015625,56.4325328125,21.7735541015625,58.678832812500005,20.4182541015625,60.1478328125Q19.0629541015625,61.616932812499996,15.5625541015625,68.5927328125L3.7780562715625,62.5673328125Q5.0005141015625,59.7873328125,6.6674541015625,57.237632812499996Q8.7575941015625,54.0406328125,11.458484101562501,51.3397328125Q14.1593541015625,48.6388128125,17.356354101562502,46.5486628125Q20.4862541015625,44.5024028125,23.9631541015625,43.1259428125Z" fill-rule="evenodd" fill="#0036A1" fill-opacity="1"/></g><g style="mix-blend-mode:passthrough"><path d="M4.924440613812315,73.9074L11.050880613812316,73.9074C12.215180613812315,73.9074,13.279480613812316,73.2496,13.800180613812316,72.2082L38.05198061381232,23.7045C38.51368061381231,23.1051,39.23138061381231,22.7462,40.000080613812315,22.7462C40.768880613812314,22.7462,41.486580613812315,23.1051,41.94818061381231,23.7045L46.65918061381232,33.1266C50.256480613812315,37.7896,55.89978061381232,40.7934,62.244680613812314,40.7934C63.62438061381231,40.7934,64.97078061381231,40.6514,66.27028061381232,40.3812L48.76048061381231,5.36145L48.759480613812315,5.36145C47.07858061381231,2.07088,43.69518061381231,0,40.000080613812315,0C36.30498061381232,0,32.92168061381231,2.07088,31.240680613812316,5.36145L31.239780613812314,5.36145L0.5255626138123153,66.7898C-1.1094593861876847,70.0599,1.2684206138123153,73.9074,4.924440613812315,73.9074ZM63.674280613812314,62.5699Q62.502680613812316,62.5699,61.34478061381232,62.498L67.04938061381232,73.9073L75.07558061381232,73.9073C78.73158061381231,73.9073,81.10948061381231,70.0598,79.47438061381231,66.7898L76.25828061381232,60.3574Q70.17728061381231,62.5699,63.674280613812314,62.5699Z" fill-rule="evenodd" fill="#2A72FF" fill-opacity="1"/></g></g></svg>