<svg width="138" height="32" viewBox="0 0 138 32" fill="none" xmlns="http://www.w3.org/2000/svg" role="img"><path fill-rule="evenodd" clip-rule="evenodd" d="M129.731 3.858h6.16v.581h-5.517v3.426h4.96v.581h-4.96v3.488h5.578v.582h-6.221V3.857ZM109.942 3.858h.643v4.02h5.541v-4.02h.643v8.657h-.643V8.46h-5.541v4.056h-.643V3.858ZM94.345 12.664a4.243 4.243 0 0 1-3.086-1.292 4.29 4.29 0 0 1-.896-1.417 4.715 4.715 0 0 1-.322-1.743v-.025c0-.61.11-1.187.328-1.732.218-.544.52-1.02.903-1.428.383-.408.839-.73 1.366-.965a4.206 4.206 0 0 1 1.732-.352c.388 0 .738.033 1.051.099.314.066.604.16.872.284.268.124.52.27.755.44.235.168.464.356.686.562l-.457.47a6.901 6.901 0 0 0-.594-.507 3.72 3.72 0 0 0-1.429-.668 3.845 3.845 0 0 0-.897-.099 3.504 3.504 0 0 0-2.603 1.12 3.89 3.89 0 0 0-.767 1.23 4.1 4.1 0 0 0-.278 1.521v.025c0 .544.095 1.053.284 1.527.19.474.448.887.773 1.237.326.35.711.627 1.156.829.446.202.928.303 1.448.303.626 0 1.17-.115 1.632-.347.462-.23.911-.564 1.349-1.001l.432.42a8.127 8.127 0 0 1-.71.613 4.328 4.328 0 0 1-1.676.785 4.672 4.672 0 0 1-1.052.111ZM73.554 3.796h.618l4.033 8.72H77.5l-1.101-2.425H71.29l-1.101 2.424h-.668l4.032-8.72Zm2.572 5.714L73.851 4.5l-2.288 5.01h4.563ZM51.612 3.858h3.142c.478 0 .913.06 1.305.18.391.119.73.292 1.014.519.284.226.505.502.661.828.157.326.236.7.236 1.12v.024c0 .454-.091.853-.272 1.2a2.532 2.532 0 0 1-.736.866 3.26 3.26 0 0 1-1.076.519 4.723 4.723 0 0 1-1.293.173h-2.337v3.228h-.643V3.858Zm3.018 4.848c.404 0 .771-.05 1.101-.148.33-.101.612-.244.847-.431a1.949 1.949 0 0 0 .748-1.56v-.025c0-.349-.063-.654-.191-.916a1.815 1.815 0 0 0-.538-.653 2.539 2.539 0 0 0-.829-.398 3.915 3.915 0 0 0-1.063-.136h-2.45v4.267h2.375ZM34.742 3.796h.618l4.032 8.72h-.704l-1.101-2.425h-5.109l-1.1 2.424h-.669l4.033-8.72Zm2.573 5.714L35.039 4.5 32.75 9.51h4.564ZM137.12 20.57c0 2.095-.913 3.415-2.741 3.96l3.323 4.611h-2.724l-3.032-4.266h-2.815v4.267h-2.142V16.449h4.721c1.937 0 3.322.327 4.158.98.835.655 1.252 1.702 1.252 3.142Zm-5.32 2.362c1.211 0 2.034-.188 2.47-.563.436-.375.654-.978.654-1.807s-.224-1.398-.672-1.707c-.448-.309-1.247-.463-2.397-.463h-2.724v4.54h2.669ZM122.856 27.39c-1.283 1.252-2.869 1.879-4.757 1.879-1.889 0-3.475-.627-4.758-1.88-1.283-1.252-1.924-2.814-1.924-4.684s.641-3.432 1.924-4.685c1.283-1.253 2.869-1.88 4.758-1.88 1.888 0 3.474.627 4.757 1.88 1.283 1.253 1.925 2.814 1.925 4.684s-.642 3.433-1.925 4.685Zm-1.57-7.945c-.866-.895-1.928-1.343-3.187-1.343s-2.321.448-3.187 1.343c-.865.896-1.299 1.983-1.299 3.26 0 1.277.433 2.363 1.299 3.26.865.895 1.928 1.343 3.187 1.343s2.321-.448 3.187-1.344c.865-.896 1.298-1.982 1.298-3.26 0-1.276-.433-2.363-1.298-3.259ZM106.903 18.41v10.732h-2.143V18.41h-3.849v-1.96h9.841v1.96h-3.849ZM91.93 26.254l-1.27 2.887H88.37l5.593-12.692h2.288l5.593 12.692h-2.288l-1.272-2.887H91.93Zm5.483-1.979-2.305-5.23-2.306 5.23h4.611ZM83.513 29.142h-5.557V16.449h4.94c.859 0 1.6.103 2.223.309.624.206 1.087.484 1.39.835.58.654.871 1.393.871 2.216 0 .992-.315 1.73-.944 2.215-.23.17-.388.275-.473.318-.084.042-.236.112-.453.209.786.17 1.413.523 1.88 1.062.465.538.698 1.207.698 2.006 0 .884-.302 1.664-.908 2.342-.714.787-1.937 1.18-3.668 1.18Zm-3.414-1.98h3.36c.786 0 1.388-.124 1.806-.372.417-.248.626-.717.626-1.407 0-1.126-.901-1.689-2.705-1.689h-3.087v3.468Zm0-5.447h2.724c1.55 0 2.324-.527 2.324-1.58 0-.605-.188-1.04-.563-1.307-.375-.267-.956-.4-1.743-.4h-2.742v3.287ZM67.36 26.236c.58.678 1.367 1.017 2.36 1.017.993 0 1.78-.339 2.36-1.017.582-.678.872-1.598.872-2.76V16.45h2.143v7.118c0 1.828-.502 3.235-1.507 4.222-1.005.986-2.294 1.48-3.868 1.48-1.573 0-2.863-.494-3.867-1.48-1.005-.987-1.507-2.394-1.507-4.222V16.45h2.142v7.027c0 1.162.29 2.082.872 2.76ZM57.435 27.198c.738 0 1.374-.123 1.907-.371.532-.249 1.089-.645 1.67-1.19l1.38 1.416c-1.344 1.49-2.975 2.234-4.894 2.234-1.918 0-3.51-.618-4.775-1.852-1.265-1.235-1.898-2.797-1.898-4.685 0-1.889.645-3.462 1.934-4.721 1.29-1.26 2.918-1.889 4.885-1.889 1.967 0 3.61.727 4.93 2.18l-1.362 1.488c-.606-.58-1.178-.986-1.716-1.216-.539-.23-1.172-.345-1.898-.345-1.283 0-2.36.415-3.232 1.244-.871.829-1.307 1.888-1.307 3.177 0 1.29.433 2.367 1.298 3.232.866.866 1.892 1.299 3.078 1.299ZM46.475 16.45h2.142v12.692h-2.324l-7.19-9.26v9.26h-2.142V16.449h2.142l7.372 9.478V16.45Z" fill="#000"></path><path d="M33.935 16.45h-2.142v12.692h2.142V16.449Z" fill="#000"></path><path fill-rule="evenodd" clip-rule="evenodd" d="M13.34 4.385c0-.094-.002-.188-.004-.284.02.031.074.127.165.284h-.16Zm-3.414 9.938c-.997 1.853-1.565 3.787-1.71 5.799-.13 1.791.064 3.336.587 4.631.071.177.14.34.21.49a17.329 17.329 0 0 1-1.183-.914c-.032-.025-.055-.035-.07-.032a9.54 9.54 0 0 0 1.845 2.145c.114.1.304.146.35.293.134.418-.228 4.18.935 5.057.74.557 4.011-.144 5.021-.47 5.269-1.701 9.355-6.568 8.747-13.58C23.992 10.05 18.925 2.228 13.871.348c-1.366-.509-1.669-.462-3.088.145C5.854 2.602 1.01 10.234.358 17.74c-.625 7.214 3.716 12.156 9.202 13.72.148.042.292.08.43.117a5.546 5.546 0 0 1-.35-.974C3.894 28.895.68 23.8 1.2 17.814c.495-5.722 4.33-14.156 9.915-16.545 1.168-.498 1.278-.57 2.462-.129 5.733 2.132 9.737 10.858 10.241 16.675.54 6.22-2.968 11.453-9.033 12.951-.61.151-1.139.25-1.634.3-1.572.158-2.118.436-2.406-1.2-.635-3.61-.155-10.142 1.415-12.649.013-.182.002.151-.116.436-.054.128-.09.206-.105.246-.94 2.155-1.465 8.406-1.018 9.593-.13-.425.103-1.321.439-1.505l.192-.135c1.053-.758 1.734-1.95 2.496-3.46-.014-.02-.038-.018-.074.008a9.992 9.992 0 0 1-1.098.8c.857-.9 1.606-2.05 2.248-3.451-.018-.026-.047-.021-.09.012-.253.229-.51.444-.774.646 1.076-1.95 2.025-4.207 2.124-6.788.049-1.67-.256-3.28-.917-4.817a22.696 22.696 0 0 0-.956-1.894c-.606-1.093-.934-1.684-.986-1.77.027 2.368-.39 4.293-1.252 5.76-.223.39-.617.957-1.188 1.701-.53.694-.918 1.269-1.158 1.724Z" fill="url(#a)"></path><defs><linearGradient id="a" x1="10.449" y1="29.81" x2="14.715" y2="7.354" gradientUnits="userSpaceOnUse"><stop stop-color="#1A1853"></stop><stop offset="0.5" stop-color="#CA2026"></stop><stop offset="1" stop-color="#F8991D"></stop></linearGradient></defs></svg>