<svg width="14" height="14" viewBox="0 0 14 14" fill="" xmlns="http://www.w3.org/2000/svg">
<path fill-rule="evenodd" clip-rule="evenodd" d="M0 1C0 0.447716 0.447715 0 1 0H13C13.5523 0 14 0.447715 14 1V13C14 13.5523 13.5523 14 13 14H1C0.447716 14 0 13.5523 0 13V1ZM1.29999 1.3H12.7V12.7H1.29999V1.3ZM2.95733 6.72443L5.26391 4.41785C5.37516 4.30661 5.37516 4.12625 5.26391 4.01502L2.95733 1.70843C2.8461 1.59719 2.66574 1.59719 2.5545 1.70843L2.28547 1.97746C2.17441 2.08851 2.1742 2.2685 2.28499 2.37982L4.11301 4.21643L2.28498 6.05305C2.17419 6.16437 2.1744 6.34435 2.28546 6.45541L2.5545 6.72443C2.66573 6.83568 2.84608 6.83568 2.95733 6.72443ZM9.79795 6.21036V6.59015C9.79795 6.74747 9.67042 6.875 9.5131 6.875H5.90504C5.74772 6.875 5.6202 6.74747 5.6202 6.59015V6.21036C5.6202 6.05304 5.74772 5.92551 5.90504 5.92551H9.5131C9.67042 5.92551 9.79795 6.05304 9.79795 6.21036Z" fill=""/>
</svg>
